{
  "source": "C:\\Users\\Peter\\Desktop\\stuff\\MIUN\\quantitative_research\\video_compression\\videos\\BVI-HD\\BVI-HD_CDVL_videos\\ORIG\\Grass_1920x1080_60fps.mp4",
  "output": "C:\\Users\\Peter\\Desktop\\stuff\\MIUN\\quantitative_research\\video_compression\\compressed_videos\\BVI-HD\\hevc\\1.5\\Grass_1920x1080_60fps_hevc.mp4",
  "codec": "hevc",
  "ok": "Input #0, mov,mp4,m4a,3gp,3g2,mj2, from 'C:\\Users\\Peter\\Desktop\\stuff\\MIUN\\quantitative_research\\video_compression\\videos\\BVI-HD\\BVI-HD_CDVL_videos\\ORIG\\Grass_1920x1080_60fps.mp4':\n  Metadata:\n    major_brand     : isom\n    minor_version   : 512\n    compatible_brands: isomiso2avc1mp41\n    encoder         : Lavf54.28.101\n  Duration: 00:00:05.00, start: 0.000000, bitrate: 655968 kb/s\n  Stream #0:0[0x1](und): Video: h264 (High 4:4:4 Predictive) (avc1 / 0x31637661), yuv420p(progressive), 1920x1080, 655963 kb/s, 60 fps, 60 tbr, 60 tbn (default)\n    Metadata:\n      handler_name    : VideoHandler\n      vendor_id       : [0][0][0][0]\n[out#0/mp4 @ 000001f68c91f040] Codec AVOption b:a (set bitrate (in bits/s)) has not been used for any stream. The most likely reason is either wrong type (e.g. a video option with no video streams) or that it is a private option of some decoder which was not actually used for any stream.\nStream mapping:\n  Stream #0:0 -> #0:0 (h264 (native) -> hevc (libx265))\nPress [q] to stop, [?] for help\n[libx265 @ 000001f68bb1c500] Unknown option: \"aq-mode.\nx265 [info]: HEVC encoder version 4.1+190-8f11c33ac\nx265 [info]: build info [Windows][GCC 15.1.0][64 bit] 10bit\nx265 [info]: using cpu capabilities: MMX2 SSE2Fast LZCNT SSSE3 SSE4.2 AVX FMA3 BMI2 AVX2\nx265 [info]: Main 10 profile, Level-4.1 (Main tier)\nx265 [info]: Thread pool created using 12 threads\nx265 [info]: Slices                              : 1\nx265 [info]: frame threads / pool features       : 3 / wpp(17 rows)\nx265 [info]: Coding QT: max CU size, min CU size : 64 / 8\nx265 [info]: Residual QT: max TU size, max depth : 32 / 1 inter / 1 intra\nx265 [info]: ME / range / subpel / merge         : star / 57 / 3 / 3\nx265 [info]: Keyframe min / max / scenecut / bias  : 25 / 250 / 40 / 5.00 \nx265 [info]: Lookahead / bframes / badapt        : 25 / 4 / 2\nx265 [info]: b-pyramid / weightp / weightb       : 1 / 1 / 0\nx265 [info]: References / ref-limit  cu / depth  : 4 / on / on\nx265 [info]: AQ: mode / str / qg-size / cu-tree  : 2 / 1.0 / 32 / 1\nx265 [info]: Rate Control / qCompress            : ABR-1500 kbps / 0.60\nx265 [info]: VBV/HRD buffer / max-rate / init    : 1500 / 1500 / 0.750\nx265 [info]: tools: rect limit-modes rd=4 psy-rd=2.00 rdoq=2 psy-rdoq=1.00\nx265 [info]: tools: rskip mode=1 signhide tmvp strong-intra-smoothing lslices=4\nx265 [info]: tools: deblock sao dhdr10-info\nOutput #0, mp4, to 'C:\\Users\\Peter\\Desktop\\stuff\\MIUN\\quantitative_research\\video_compression\\compressed_videos\\BVI-HD\\hevc\\1.5\\Grass_1920x1080_60fps_hevc.mp4':\n  Metadata:\n    major_brand     : isom\n    minor_version   : 512\n    compatible_brands: isomiso2avc1mp41\n    encoder         : Lavf62.3.100\n  Stream #0:0(und): Video: hevc (hev1 / 0x31766568), yuv420p10le(tv, progressive), 1920x1080, q=2-31, 1500 kb/s, 60 fps, 15360 tbn (default)\n    Metadata:\n      encoder         : Lavc62.11.100 libx265\n      handler_name    : VideoHandler\n      vendor_id       : [0][0][0][0]\n    Side data:\n      cpb: bitrate max/min/avg: 1500000/0/1500000 buffer size: 1500000 vbv_delay: N/A\nframe=    0 fps=0.0 q=0.0 size=       0KiB time=N/A bitrate=N/A speed=N/A elapsed=0:00:01.03    \nframe=    0 fps=0.0 q=0.0 size=       0KiB time=N/A bitrate=N/A speed=N/A elapsed=0:00:01.58    \nframe=    0 fps=0.0 q=0.0 size=       0KiB time=N/A bitrate=N/A speed=N/A elapsed=0:00:02.11    \nframe=    0 fps=0.0 q=0.0 size=       0KiB time=N/A bitrate=N/A speed=N/A elapsed=0:00:02.63    \nframe=    0 fps=0.0 q=0.0 size=       0KiB time=N/A bitrate=N/A speed=N/A elapsed=0:00:03.14    \nframe=    0 fps=0.0 q=0.0 size=       0KiB time=N/A bitrate=N/A speed=N/A elapsed=0:00:03.66    \nframe=    0 fps=0.0 q=0.0 size=       0KiB time=N/A bitrate=N/A speed=N/A elapsed=0:00:04.17    \nframe=    0 fps=0.0 q=0.0 size=       0KiB time=N/A bitrate=N/A speed=N/A elapsed=0:00:04.68    \nframe=    0 fps=0.0 q=0.0 size=       0KiB time=N/A bitrate=N/A speed=N/A elapsed=0:00:05.22    \nframe=    0 fps=0.0 q=0.0 size=       0KiB time=N/A bitrate=N/A speed=N/A elapsed=0:00:05.75    \nframe=    0 fps=0.0 q=0.0 size=       0KiB time=N/A bitrate=N/A speed=N/A elapsed=0:00:06.27    \nframe=    0 fps=0.0 q=0.0 size=       0KiB time=N/A bitrate=N/A speed=N/A elapsed=0:00:06.81    \nframe=    0 fps=0.0 q=0.0 size=       0KiB time=N/A bitrate=N/A speed=N/A elapsed=0:00:07.40    \nframe=    1 fps=0.1 q=46.4 size=       0KiB time=-00:00:00.01 bitrate=N/A speed=N/A elapsed=0:00:07.94    \nframe=    2 fps=0.2 q=51.0 size=       0KiB time=00:00:00.00 bitrate=N/A speed=   0x elapsed=0:00:08.45    \nframe=    3 fps=0.3 q=51.0 size=       0KiB time=00:00:00.01 bitrate=  21.1kbits/s speed=0.00185x elapsed=0:00:08.99    \nframe=    4 fps=0.4 q=51.0 size=       0KiB time=00:00:00.03 bitrate=  10.6kbits/s speed=0.00349x elapsed=0:00:09.54    \nframe=    4 fps=0.4 q=51.0 size=       0KiB time=00:00:00.03 bitrate=  10.6kbits/s speed=0.00331x elapsed=0:00:10.06    \nframe=    5 fps=0.5 q=51.0 size=       0KiB time=00:00:00.05 bitrate=   7.0kbits/s speed=0.00472x elapsed=0:00:10.59    \nframe=    6 fps=0.5 q=47.8 size=       0KiB time=00:00:00.06 bitrate=   5.3kbits/s speed=0.006x elapsed=0:00:11.11    \nframe=    7 fps=0.6 q=51.0 size=       0KiB time=00:00:00.08 bitrate=   4.2kbits/s speed=0.00715x elapsed=0:00:11.65    \nframe=    7 fps=0.6 q=51.0 size=       0KiB time=00:00:00.08 bitrate=   4.2kbits/s speed=0.00683x elapsed=0:00:12.20    \nframe=    8 fps=0.6 q=51.0 size=       0KiB time=00:00:00.10 bitrate=   3.5kbits/s speed=0.00785x elapsed=0:00:12.74    \nframe=    8 fps=0.6 q=51.0 size=       0KiB time=00:00:00.10 bitrate=   3.5kbits/s speed=0.00754x elapsed=0:00:13.26    \nframe=    9 fps=0.7 q=50.1 size=       0KiB time=00:00:00.11 bitrate=   3.0kbits/s speed=0.00846x elapsed=0:00:13.78    \nframe=   10 fps=0.7 q=50.0 size=       0KiB time=00:00:00.13 bitrate=   2.6kbits/s speed=0.00931x elapsed=0:00:14.31    \nframe=   11 fps=0.7 q=46.0 size=       0KiB time=00:00:00.15 bitrate=   2.3kbits/s speed=0.0101x elapsed=0:00:14.84    \nframe=   11 fps=0.7 q=46.0 size=       0KiB time=00:00:00.15 bitrate=   2.3kbits/s speed=0.00976x elapsed=0:00:15.37    \nframe=   12 fps=0.8 q=49.1 size=       0KiB time=00:00:00.16 bitrate=   2.1kbits/s speed=0.0105x elapsed=0:00:15.93    \nframe=   12 fps=0.7 q=49.1 size=       0KiB time=00:00:00.16 bitrate=   2.1kbits/s speed=0.0101x elapsed=0:00:16.46    \nframe=   13 fps=0.8 q=48.9 size=       0KiB time=00:00:00.18 bitrate=   1.9kbits/s speed=0.0108x elapsed=0:00:16.99    \nframe=   14 fps=0.8 q=44.6 size=       0KiB time=00:00:00.20 bitrate=   1.8kbits/s speed=0.0114x elapsed=0:00:17.50    \nframe=   15 fps=0.8 q=51.0 size=       0KiB time=00:00:00.21 bitrate=   1.6kbits/s speed=0.012x elapsed=0:00:18.05    \nframe=   16 fps=0.9 q=51.0 size=       0KiB time=00:00:00.23 bitrate=   1.5kbits/s speed=0.0126x elapsed=0:00:18.57    \nframe=   16 fps=0.8 q=51.0 size=       0KiB time=00:00:00.23 bitrate=   1.5kbits/s speed=0.0122x elapsed=0:00:19.07    \nframe=   16 fps=0.8 q=51.0 size=       0KiB time=00:00:00.23 bitrate=   1.5kbits/s speed=0.0119x elapsed=0:00:19.60    \nframe=   16 fps=0.8 q=51.0 size=       0KiB time=00:00:00.23 bitrate=   1.5kbits/s speed=0.0116x elapsed=0:00:20.10    \nframe=   18 fps=0.9 q=45.0 size=       0KiB time=00:00:00.26 bitrate=   1.3kbits/s speed=0.0129x elapsed=0:00:20.63    \nframe=   19 fps=0.9 q=50.9 size=       0KiB time=00:00:00.28 bitrate=   1.2kbits/s speed=0.0134x elapsed=0:00:21.19    \nframe=   19 fps=0.9 q=50.9 size=       0KiB time=00:00:00.28 bitrate=   1.2kbits/s speed=0.0131x elapsed=0:00:21.71    \nframe=   19 fps=0.9 q=50.9 size=       0KiB time=00:00:00.28 bitrate=   1.2kbits/s speed=0.0127x elapsed=0:00:22.23    \nframe=   20 fps=0.9 q=51.0 size=       0KiB time=00:00:00.30 bitrate=   1.2kbits/s speed=0.0132x elapsed=0:00:22.76    \nframe=   20 fps=0.9 q=51.0 size=       0KiB time=00:00:00.30 bitrate=   1.2kbits/s speed=0.0129x elapsed=0:00:23.30    \nframe=   20 fps=0.8 q=51.0 size=       0KiB time=00:00:00.30 bitrate=   1.2kbits/s speed=0.0126x elapsed=0:00:23.82    \nframe=   21 fps=0.9 q=51.0 size=       0KiB time=00:00:00.31 bitrate=   1.1kbits/s speed=0.013x elapsed=0:00:24.35    \nframe=   22 fps=0.9 q=44.5 size=       0KiB time=00:00:00.33 bitrate=   1.1kbits/s speed=0.0134x elapsed=0:00:24.88    \nframe=   23 fps=0.9 q=51.0 size=       0KiB time=00:00:00.35 bitrate=   1.0kbits/s speed=0.0138x elapsed=0:00:25.41    \nframe=   23 fps=0.9 q=51.0 size=       0KiB time=00:00:00.35 bitrate=   1.0kbits/s speed=0.0135x elapsed=0:00:25.93    \nframe=   23 fps=0.9 q=51.0 size=       0KiB time=00:00:00.35 bitrate=   1.0kbits/s speed=0.0132x elapsed=0:00:26.46    \nframe=   24 fps=0.9 q=51.0 size=       0KiB time=00:00:00.36 bitrate=   1.0kbits/s speed=0.0136x elapsed=0:00:26.99    \nframe=   25 fps=0.9 q=51.0 size=       0KiB time=00:00:00.38 bitrate=   0.9kbits/s speed=0.0139x elapsed=0:00:27.54    \nframe=   26 fps=0.9 q=43.5 size=       0KiB time=00:00:00.40 bitrate=   0.9kbits/s speed=0.0143x elapsed=0:00:28.06    \nframe=   26 fps=0.9 q=43.5 size=       0KiB time=00:00:00.40 bitrate=   0.9kbits/s speed=0.014x elapsed=0:00:28.59    \nframe=   27 fps=0.9 q=50.0 size=       0KiB time=00:00:00.41 bitrate=   0.8kbits/s speed=0.0143x elapsed=0:00:29.13    \nframe=   27 fps=0.9 q=50.0 size=       0KiB time=00:00:00.41 bitrate=   0.8kbits/s speed=0.014x elapsed=0:00:29.68    \nframe=   28 fps=0.9 q=51.0 size=       0KiB time=00:00:00.43 bitrate=   0.8kbits/s speed=0.0143x elapsed=0:00:30.20    \nframe=   28 fps=0.9 q=51.0 size=       0KiB time=00:00:00.43 bitrate=   0.8kbits/s speed=0.0141x elapsed=0:00:30.72    \nframe=   29 fps=0.9 q=43.5 size=       0KiB time=00:00:00.45 bitrate=   0.8kbits/s speed=0.0144x elapsed=0:00:31.27    \nframe=   30 fps=0.9 q=50.0 size=       0KiB time=00:00:00.46 bitrate=   0.8kbits/s speed=0.0147x elapsed=0:00:31.78    \nframe=   30 fps=0.9 q=50.0 size=       0KiB time=00:00:00.46 bitrate=   0.8kbits/s speed=0.0144x elapsed=0:00:32.30    \nframe=   30 fps=0.9 q=50.0 size=       0KiB time=00:00:00.46 bitrate=   0.8kbits/s speed=0.0142x elapsed=0:00:32.82    \nframe=   30 fps=0.9 q=50.0 size=       0KiB time=00:00:00.46 bitrate=   0.8kbits/s speed=0.014x elapsed=0:00:33.35    \nframe=   31 fps=0.9 q=51.0 size=       0KiB time=00:00:00.48 bitrate=   0.7kbits/s speed=0.0143x elapsed=0:00:33.88    \nframe=   31 fps=0.9 q=51.0 size=       0KiB time=00:00:00.48 bitrate=   0.7kbits/s speed=0.014x elapsed=0:00:34.43    \nframe=   32 fps=0.9 q=50.0 size=       0KiB time=00:00:00.50 bitrate=   0.7kbits/s speed=0.0143x elapsed=0:00:34.98    \nframe=   33 fps=0.9 q=43.4 size=       0KiB time=00:00:00.51 bitrate=   0.7kbits/s speed=0.0145x elapsed=0:00:35.51    \nframe=   33 fps=0.9 q=43.4 size=       0KiB time=00:00:00.51 bitrate=   0.7kbits/s speed=0.0143x elapsed=0:00:36.03    \nframe=   34 fps=0.9 q=49.0 size=       0KiB time=00:00:00.53 bitrate=   0.7kbits/s speed=0.0146x elapsed=0:00:36.55    \nframe=   34 fps=0.9 q=49.0 size=       0KiB time=00:00:00.53 bitrate=   0.7kbits/s speed=0.0144x elapsed=0:00:37.10    \nframe=   34 fps=0.9 q=49.0 size=       0KiB time=00:00:00.53 bitrate=   0.7kbits/s speed=0.0142x elapsed=0:00:37.63    \nframe=   34 fps=0.9 q=49.0 size=       0KiB time=00:00:00.53 bitrate=   0.7kbits/s speed=0.014x elapsed=0:00:38.18    \nframe=   35 fps=0.9 q=50.0 size=       0KiB time=00:00:00.55 bitrate=   0.6kbits/s speed=0.0142x elapsed=0:00:38.72    \nframe=   35 fps=0.9 q=50.0 size=       0KiB time=00:00:00.55 bitrate=   0.6kbits/s speed=0.014x elapsed=0:00:39.26    \nframe=   36 fps=0.9 q=48.0 size=       0KiB time=00:00:00.56 bitrate=   0.6kbits/s speed=0.0142x elapsed=0:00:39.79    \nframe=   36 fps=0.9 q=48.0 size=       0KiB time=00:00:00.56 bitrate=   0.6kbits/s speed=0.0141x elapsed=0:00:40.30    \nframe=   36 fps=0.9 q=48.0 size=       0KiB time=00:00:00.56 bitrate=   0.6kbits/s speed=0.0139x elapsed=0:00:40.83    \nframe=   37 fps=0.9 q=43.0 size=       0KiB time=00:00:00.58 bitrate=   0.6kbits/s speed=0.0141x elapsed=0:00:41.37    \nframe=   37 fps=0.9 q=43.0 size=       0KiB time=00:00:00.58 bitrate=   0.6kbits/s speed=0.0139x elapsed=0:00:41.89    \nframe=   38 fps=0.9 q=47.9 size=       0KiB time=00:00:00.60 bitrate=   0.6kbits/s speed=0.0141x elapsed=0:00:42.41    \nframe=   38 fps=0.9 q=47.9 size=       0KiB time=00:00:00.60 bitrate=   0.6kbits/s speed=0.014x elapsed=0:00:42.92    \nframe=   38 fps=0.9 q=47.9 size=       0KiB time=00:00:00.60 bitrate=   0.6kbits/s speed=0.0138x elapsed=0:00:43.44    \nframe=   39 fps=0.9 q=48.0 size=       0KiB time=00:00:00.61 bitrate=   0.6kbits/s speed=0.014x elapsed=0:00:43.99    \nframe=   39 fps=0.9 q=48.0 size=       0KiB time=00:00:00.61 bitrate=   0.6kbits/s speed=0.0138x elapsed=0:00:44.53    \nframe=   40 fps=0.9 q=48.0 size=       0KiB time=00:00:00.63 bitrate=   0.6kbits/s speed=0.0141x elapsed=0:00:45.05    \nframe=   41 fps=0.9 q=42.7 size=       0KiB time=00:00:00.65 bitrate=   0.5kbits/s speed=0.0143x elapsed=0:00:45.60    \nframe=   41 fps=0.9 q=42.7 size=       0KiB time=00:00:00.65 bitrate=   0.5kbits/s speed=0.0141x elapsed=0:00:46.15    \nframe=   43 fps=0.9 q=49.0 size=       0KiB time=00:00:00.68 bitrate=   0.5kbits/s speed=0.0146x elapsed=0:00:46.67    \nframe=   44 fps=0.9 q=42.9 size=       0KiB time=00:00:00.70 bitrate=   0.5kbits/s speed=0.0148x elapsed=0:00:47.19    \nframe=   45 fps=0.9 q=48.7 size=       0KiB time=00:00:00.71 bitrate=   0.5kbits/s speed=0.015x elapsed=0:00:47.73    \nframe=   45 fps=0.9 q=48.7 size=       0KiB time=00:00:00.71 bitrate=   0.5kbits/s speed=0.0148x elapsed=0:00:48.28    \nframe=   45 fps=0.9 q=48.7 size=       0KiB time=00:00:00.71 bitrate=   0.5kbits/s speed=0.0147x elapsed=0:00:48.82    \nframe=   45 fps=0.9 q=48.7 size=       0KiB time=00:00:00.71 bitrate=   0.5kbits/s speed=0.0145x elapsed=0:00:49.37    \nframe=   45 fps=0.9 q=48.7 size=       0KiB time=00:00:00.71 bitrate=   0.5kbits/s speed=0.0144x elapsed=0:00:49.92    \nframe=   45 fps=0.9 q=48.7 size=       0KiB time=00:00:00.71 bitrate=   0.5kbits/s speed=0.0142x elapsed=0:00:50.45    \nframe=   45 fps=0.9 q=48.7 size=       0KiB time=00:00:00.71 bitrate=   0.5kbits/s speed=0.0141x elapsed=0:00:50.97    \nframe=   46 fps=0.9 q=49.0 size=       0KiB time=00:00:00.73 bitrate=   0.5kbits/s speed=0.0142x elapsed=0:00:51.49    \nframe=   47 fps=0.9 q=48.0 size=       0KiB time=00:00:00.75 bitrate=   0.5kbits/s speed=0.0144x elapsed=0:00:52.01    \nframe=   48 fps=0.9 q=42.3 size=       0KiB time=00:00:00.76 bitrate=   0.5kbits/s speed=0.0146x elapsed=0:00:52.53    \nframe=   49 fps=0.9 q=47.8 size=       0KiB time=00:00:00.78 bitrate=   0.4kbits/s speed=0.0148x elapsed=0:00:53.06    \nframe=   49 fps=0.9 q=47.8 size=       0KiB time=00:00:00.78 bitrate=   0.4kbits/s speed=0.0146x elapsed=0:00:53.61    \nframe=   49 fps=0.9 q=47.8 size=       0KiB time=00:00:00.78 bitrate=   0.4kbits/s speed=0.0145x elapsed=0:00:54.13    \nframe=   49 fps=0.9 q=47.8 size=       0KiB time=00:00:00.78 bitrate=   0.4kbits/s speed=0.0143x elapsed=0:00:54.68    \nframe=   49 fps=0.9 q=47.8 size=       0KiB time=00:00:00.78 bitrate=   0.4kbits/s speed=0.0142x elapsed=0:00:55.20    \nframe=   50 fps=0.9 q=48.0 size=       0KiB time=00:00:00.80 bitrate=   0.4kbits/s speed=0.0144x elapsed=0:00:55.72    \nframe=   51 fps=0.9 q=49.0 size=       0KiB time=00:00:00.81 bitrate=   0.4kbits/s speed=0.0145x elapsed=0:00:56.24    \nframe=   51 fps=0.9 q=49.0 size=       0KiB time=00:00:00.81 bitrate=   0.4kbits/s speed=0.0144x elapsed=0:00:56.76    \nframe=   52 fps=0.9 q=42.3 size=       0KiB time=00:00:00.83 bitrate=   0.4kbits/s speed=0.0145x elapsed=0:00:57.39    \nframe=   52 fps=0.9 q=42.3 size=       0KiB time=00:00:00.83 bitrate=   0.4kbits/s speed=0.0144x elapsed=0:00:57.95    \nframe=   52 fps=0.9 q=42.3 size=       0KiB time=00:00:00.83 bitrate=   0.4kbits/s speed=0.0142x elapsed=0:00:58.48    \nframe=   52 fps=0.9 q=42.3 size=       0KiB time=00:00:00.83 bitrate=   0.4kbits/s speed=0.0141x elapsed=0:00:59.07    \nframe=   52 fps=0.9 q=42.3 size=       0KiB time=00:00:00.83 bitrate=   0.4kbits/s speed=0.0139x elapsed=0:00:59.75    \nframe=   52 fps=0.9 q=42.3 size=       0KiB time=00:00:00.83 bitrate=   0.4kbits/s speed=0.0138x elapsed=0:01:00.31    \nframe=   52 fps=0.9 q=42.3 size=       0KiB time=00:00:00.83 bitrate=   0.4kbits/s speed=0.0137x elapsed=0:01:00.86    \nframe=   52 fps=0.8 q=42.3 size=       0KiB time=00:00:00.83 bitrate=   0.4kbits/s speed=0.0136x elapsed=0:01:01.41    \nframe=   52 fps=0.8 q=42.3 size=       0KiB time=00:00:00.83 bitrate=   0.4kbits/s speed=0.0134x elapsed=0:01:01.99    \nframe=   52 fps=0.8 q=42.3 size=       0KiB time=00:00:00.83 bitrate=   0.4kbits/s speed=0.0133x elapsed=0:01:02.64    \nframe=   52 fps=0.8 q=42.3 size=       0KiB time=00:00:00.83 bitrate=   0.4kbits/s speed=0.0132x elapsed=0:01:03.30    \nframe=   52 fps=0.8 q=42.3 size=       0KiB time=00:00:00.83 bitrate=   0.4kbits/s speed=0.013x elapsed=0:01:03.88    \nframe=   52 fps=0.8 q=42.3 size=       0KiB time=00:00:00.83 bitrate=   0.4kbits/s speed=0.0129x elapsed=0:01:04.42    \nframe=   53 fps=0.8 q=47.9 size=       0KiB time=00:00:00.85 bitrate=   0.4kbits/s speed=0.0131x elapsed=0:01:04.95    \nframe=   53 fps=0.8 q=47.9 size=       0KiB time=00:00:00.85 bitrate=   0.4kbits/s speed=0.013x elapsed=0:01:05.49    \nframe=   53 fps=0.8 q=47.9 size=       0KiB time=00:00:00.85 bitrate=   0.4kbits/s speed=0.0129x elapsed=0:01:06.05    \nframe=   54 fps=0.8 q=49.0 size=       0KiB time=00:00:00.86 bitrate=   0.4kbits/s speed=0.013x elapsed=0:01:06.63    \nframe=   55 fps=0.8 q=42.3 size=       0KiB time=00:00:00.88 bitrate=   0.4kbits/s speed=0.0132x elapsed=0:01:07.16    \nframe=   55 fps=0.8 q=42.3 size=       0KiB time=00:00:00.88 bitrate=   0.4kbits/s speed=0.0131x elapsed=0:01:07.67    \nframe=   55 fps=0.8 q=42.3 size=       0KiB time=00:00:00.88 bitrate=   0.4kbits/s speed=0.0129x elapsed=0:01:08.22    \nframe=   56 fps=0.8 q=47.9 size=       0KiB time=00:00:00.90 bitrate=   0.4kbits/s speed=0.0131x elapsed=0:01:08.79    \nframe=   56 fps=0.8 q=47.9 size=       0KiB time=00:00:00.90 bitrate=   0.4kbits/s speed=0.013x elapsed=0:01:09.34    \nframe=   56 fps=0.8 q=47.9 size=       0KiB time=00:00:00.90 bitrate=   0.4kbits/s speed=0.0129x elapsed=0:01:09.87    \nframe=   56 fps=0.8 q=47.9 size=       0KiB time=00:00:00.90 bitrate=   0.4kbits/s speed=0.0128x elapsed=0:01:10.43    \nframe=   58 fps=0.8 q=48.0 size=       0KiB time=00:00:00.93 bitrate=   0.4kbits/s speed=0.0132x elapsed=0:01:10.95    \nframe=   58 fps=0.8 q=48.0 size=       0KiB time=00:00:00.93 bitrate=   0.4kbits/s speed=0.0131x elapsed=0:01:11.46    \nframe=   59 fps=0.8 q=42.4 size=       0KiB time=00:00:00.95 bitrate=   0.4kbits/s speed=0.0132x elapsed=0:01:12.00    \nframe=   60 fps=0.8 q=47.8 size=       0KiB time=00:00:00.96 bitrate=   0.4kbits/s speed=0.0133x elapsed=0:01:12.55    \nframe=   60 fps=0.8 q=47.8 size=       0KiB time=00:00:00.96 bitrate=   0.4kbits/s speed=0.0132x elapsed=0:01:13.07    \nframe=   60 fps=0.8 q=47.8 size=       0KiB time=00:00:00.96 bitrate=   0.4kbits/s speed=0.0131x elapsed=0:01:13.61    \nframe=   61 fps=0.8 q=48.0 size=       0KiB time=00:00:00.98 bitrate=   0.4kbits/s speed=0.0133x elapsed=0:01:14.12    \nframe=   61 fps=0.8 q=48.0 size=       0KiB time=00:00:00.98 bitrate=   0.4kbits/s speed=0.0132x elapsed=0:01:14.65    \nframe=   61 fps=0.8 q=48.0 size=       0KiB time=00:00:00.98 bitrate=   0.4kbits/s speed=0.0131x elapsed=0:01:15.19    \nframe=   62 fps=0.8 q=47.0 size=       0KiB time=00:00:01.00 bitrate=   0.4kbits/s speed=0.0132x elapsed=0:01:15.71    \nframe=   63 fps=0.8 q=42.3 size=       0KiB time=00:00:01.01 bitrate=   0.3kbits/s speed=0.0133x elapsed=0:01:16.25    \nframe=   63 fps=0.8 q=42.3 size=       0KiB time=00:00:01.01 bitrate=   0.3kbits/s speed=0.0132x elapsed=0:01:16.78    \nframe=   64 fps=0.8 q=46.7 size=       0KiB time=00:00:01.03 bitrate=   0.3kbits/s speed=0.0134x elapsed=0:01:17.29    \nframe=   64 fps=0.8 q=46.7 size=       0KiB time=00:00:01.03 bitrate=   0.3kbits/s speed=0.0133x elapsed=0:01:17.83    \nframe=   64 fps=0.8 q=46.7 size=       0KiB time=00:00:01.03 bitrate=   0.3kbits/s speed=0.0132x elapsed=0:01:18.37    \nframe=   65 fps=0.8 q=47.0 size=       0KiB time=00:00:01.05 bitrate=   0.3kbits/s speed=0.0133x elapsed=0:01:18.91    \nframe=   65 fps=0.8 q=47.0 size=       0KiB time=00:00:01.05 bitrate=   0.3kbits/s speed=0.0132x elapsed=0:01:19.46    \nframe=   66 fps=0.8 q=47.0 size=       0KiB time=00:00:01.06 bitrate=   0.3kbits/s speed=0.0133x elapsed=0:01:20.00    \nframe=   67 fps=0.8 q=42.0 size=       0KiB time=00:00:01.08 bitrate=   0.3kbits/s speed=0.0135x elapsed=0:01:20.52    \nframe=   67 fps=0.8 q=42.0 size=       0KiB time=00:00:01.08 bitrate=   0.3kbits/s speed=0.0134x elapsed=0:01:21.03    \nframe=   67 fps=0.8 q=42.0 size=       0KiB time=00:00:01.08 bitrate=   0.3kbits/s speed=0.0133x elapsed=0:01:21.55    \nframe=   69 fps=0.8 q=48.0 size=       0KiB time=00:00:01.11 bitrate=   0.3kbits/s speed=0.0136x elapsed=0:01:22.08    \nframe=   69 fps=0.8 q=48.0 size=       0KiB time=00:00:01.11 bitrate=   0.3kbits/s speed=0.0135x elapsed=0:01:22.60    \nframe=   71 fps=0.9 q=46.7 size=       0KiB time=00:00:01.15 bitrate=   0.3kbits/s speed=0.0138x elapsed=0:01:23.13    \nframe=   71 fps=0.8 q=46.7 size=       0KiB time=00:00:01.15 bitrate=   0.3kbits/s speed=0.0137x elapsed=0:01:23.65    \nframe=   71 fps=0.8 q=46.7 size=       0KiB time=00:00:01.15 bitrate=   0.3kbits/s speed=0.0137x elapsed=0:01:24.21    \nframe=   72 fps=0.8 q=48.0 size=       0KiB time=00:00:01.16 bitrate=   0.3kbits/s speed=0.0138x elapsed=0:01:24.71    \nframe=   72 fps=0.8 q=48.0 size=       0KiB time=00:00:01.16 bitrate=   0.3kbits/s speed=0.0137x elapsed=0:01:25.23    \nframe=   73 fps=0.9 q=48.0 size=       0KiB time=00:00:01.18 bitrate=   0.3kbits/s speed=0.0138x elapsed=0:01:25.75    \nframe=   75 fps=0.9 q=47.6 size=       0KiB time=00:00:01.21 bitrate=   0.3kbits/s speed=0.0141x elapsed=0:01:26.26    \nframe=   75 fps=0.9 q=47.6 size=       0KiB time=00:00:01.21 bitrate=   0.3kbits/s speed=0.014x elapsed=0:01:26.79    \nframe=   75 fps=0.9 q=47.6 size=       0KiB time=00:00:01.21 bitrate=   0.3kbits/s speed=0.0139x elapsed=0:01:27.33    \nframe=   75 fps=0.9 q=47.6 size=       0KiB time=00:00:01.21 bitrate=   0.3kbits/s speed=0.0138x elapsed=0:01:27.90    \nframe=   75 fps=0.8 q=47.6 size=       0KiB time=00:00:01.21 bitrate=   0.3kbits/s speed=0.0138x elapsed=0:01:28.45    \nframe=   76 fps=0.9 q=49.0 size=       0KiB time=00:00:01.23 bitrate=   0.3kbits/s speed=0.0139x elapsed=0:01:28.98    \nframe=   77 fps=0.9 q=47.0 size=       0KiB time=00:00:01.25 bitrate=   0.3kbits/s speed=0.014x elapsed=0:01:29.51    \nframe=   77 fps=0.9 q=47.0 size=       0KiB time=00:00:01.25 bitrate=   0.3kbits/s speed=0.0139x elapsed=0:01:30.06    \nframe=   78 fps=0.9 q=41.5 size=       0KiB time=00:00:01.26 bitrate=   0.3kbits/s speed=0.014x elapsed=0:01:30.59    \nframe=   78 fps=0.9 q=41.5 size=       0KiB time=00:00:01.26 bitrate=   0.3kbits/s speed=0.0139x elapsed=0:01:31.12    \nframe=   79 fps=0.9 q=46.9 size=       0KiB time=00:00:01.28 bitrate=   0.3kbits/s speed=0.014x elapsed=0:01:31.65    \nframe=   79 fps=0.9 q=46.9 size=       0KiB time=00:00:01.28 bitrate=   0.3kbits/s speed=0.0139x elapsed=0:01:32.17    \nframe=   80 fps=0.9 q=48.0 size=       0KiB time=00:00:01.30 bitrate=   0.3kbits/s speed=0.014x elapsed=0:01:32.72    \nframe=   81 fps=0.9 q=41.7 size=       0KiB time=00:00:01.31 bitrate=   0.3kbits/s speed=0.0141x elapsed=0:01:33.25    \nframe=   82 fps=0.9 q=46.8 size=       0KiB time=00:00:01.33 bitrate=   0.3kbits/s speed=0.0142x elapsed=0:01:33.77    \nframe=   82 fps=0.9 q=46.8 size=       0KiB time=00:00:01.33 bitrate=   0.3kbits/s speed=0.0141x elapsed=0:01:34.30    \nframe=   82 fps=0.9 q=46.8 size=       0KiB time=00:00:01.33 bitrate=   0.3kbits/s speed=0.0141x elapsed=0:01:34.83    \nframe=   82 fps=0.9 q=46.8 size=       0KiB time=00:00:01.33 bitrate=   0.3kbits/s speed=0.014x elapsed=0:01:35.40    \nframe=   82 fps=0.9 q=46.8 size=       0KiB time=00:00:01.33 bitrate=   0.3kbits/s speed=0.0139x elapsed=0:01:35.93    \nframe=   82 fps=0.8 q=46.8 size=       0KiB time=00:00:01.33 bitrate=   0.3kbits/s speed=0.0138x elapsed=0:01:36.47    \nframe=   82 fps=0.8 q=46.8 size=       0KiB time=00:00:01.33 bitrate=   0.3kbits/s speed=0.0137x elapsed=0:01:37.01    \nframe=   83 fps=0.9 q=48.0 size=       0KiB time=00:00:01.35 bitrate=   0.3kbits/s speed=0.0138x elapsed=0:01:37.55    \nframe=   83 fps=0.8 q=48.0 size=       0KiB time=00:00:01.35 bitrate=   0.3kbits/s speed=0.0138x elapsed=0:01:38.12    \nframe=   84 fps=0.9 q=47.0 size=       0KiB time=00:00:01.36 bitrate=   0.3kbits/s speed=0.0139x elapsed=0:01:38.64    \nframe=   85 fps=0.9 q=41.2 size=       0KiB time=00:00:01.38 bitrate=   0.3kbits/s speed=0.014x elapsed=0:01:39.16    \nframe=   86 fps=0.9 q=46.8 size=       0KiB time=00:00:01.40 bitrate=   0.3kbits/s speed=0.014x elapsed=0:01:39.69    \nframe=   86 fps=0.9 q=46.8 size=       0KiB time=00:00:01.40 bitrate=   0.3kbits/s speed=0.014x elapsed=0:01:40.20    \nframe=   86 fps=0.9 q=46.8 size=       0KiB time=00:00:01.40 bitrate=   0.3kbits/s speed=0.0139x elapsed=0:01:40.73    \nframe=   86 fps=0.8 q=46.8 size=       0KiB time=00:00:01.40 bitrate=   0.3kbits/s speed=0.0138x elapsed=0:01:41.26    \nframe=   87 fps=0.9 q=47.0 size=       0KiB time=00:00:01.41 bitrate=   0.2kbits/s speed=0.0139x elapsed=0:01:41.77    \nframe=   88 fps=0.9 q=47.0 size=       0KiB time=00:00:01.43 bitrate=   0.2kbits/s speed=0.014x elapsed=0:01:42.30    \nframe=   88 fps=0.9 q=47.0 size=       0KiB time=00:00:01.43 bitrate=   0.2kbits/s speed=0.0139x elapsed=0:01:42.82    \nframe=   89 fps=0.9 q=41.2 size=       0KiB time=00:00:01.45 bitrate=   0.2kbits/s speed=0.014x elapsed=0:01:43.35    \nframe=   89 fps=0.9 q=41.2 size=       0KiB time=00:00:01.45 bitrate=   0.2kbits/s speed=0.014x elapsed=0:01:43.89    \nframe=   89 fps=0.9 q=41.2 size=       0KiB time=00:00:01.45 bitrate=   0.2kbits/s speed=0.0139x elapsed=0:01:44.42    \nframe=   89 fps=0.8 q=41.2 size=       0KiB time=00:00:01.45 bitrate=   0.2kbits/s speed=0.0138x elapsed=0:01:44.94    \nframe=   89 fps=0.8 q=41.2 size=       0KiB time=00:00:01.45 bitrate=   0.2kbits/s speed=0.0137x elapsed=0:01:45.48    \nframe=   90 fps=0.8 q=46.6 size=       0KiB time=00:00:01.46 bitrate=   0.2kbits/s speed=0.0138x elapsed=0:01:46.00    \nframe=   91 fps=0.9 q=47.0 size=       0KiB time=00:00:01.48 bitrate=   0.2kbits/s speed=0.0139x elapsed=0:01:46.54    \nframe=   92 fps=0.9 q=41.1 size=       0KiB time=00:00:01.50 bitrate=   0.2kbits/s speed=0.014x elapsed=0:01:47.05    \nframe=   92 fps=0.9 q=41.1 size=       0KiB time=00:00:01.50 bitrate=   0.2kbits/s speed=0.0139x elapsed=0:01:47.61    \nframe=   93 fps=0.9 q=46.8 size=     256KiB time=00:00:01.51 bitrate=1383.0kbits/s speed=0.014x elapsed=0:01:48.12    \nframe=   93 fps=0.9 q=46.8 size=     256KiB time=00:00:01.51 bitrate=1383.0kbits/s speed=0.014x elapsed=0:01:48.65    \nframe=   93 fps=0.9 q=46.8 size=     256KiB time=00:00:01.51 bitrate=1383.0kbits/s speed=0.0139x elapsed=0:01:49.21    \nframe=   94 fps=0.9 q=47.0 size=     256KiB time=00:00:01.53 bitrate=1367.9kbits/s speed=0.014x elapsed=0:01:49.72    \nframe=   94 fps=0.9 q=47.0 size=     256KiB time=00:00:01.53 bitrate=1367.9kbits/s speed=0.0139x elapsed=0:01:50.25    \nframe=   95 fps=0.9 q=46.0 size=     256KiB time=00:00:01.55 bitrate=1353.2kbits/s speed=0.014x elapsed=0:01:50.77    \nframe=   96 fps=0.9 q=41.1 size=     256KiB time=00:00:01.56 bitrate=1338.8kbits/s speed=0.0141x elapsed=0:01:51.31    \nframe=   97 fps=0.9 q=46.7 size=     256KiB time=00:00:01.58 bitrate=1324.7kbits/s speed=0.0142x elapsed=0:01:51.84    \nframe=   97 fps=0.9 q=46.7 size=     256KiB time=00:00:01.58 bitrate=1324.7kbits/s speed=0.0141x elapsed=0:01:52.38    \nframe=   97 fps=0.9 q=46.7 size=     256KiB time=00:00:01.58 bitrate=1324.7kbits/s speed=0.014x elapsed=0:01:52.90    \nframe=   97 fps=0.9 q=46.7 size=     256KiB time=00:00:01.58 bitrate=1324.7kbits/s speed=0.014x elapsed=0:01:53.43    \nframe=   98 fps=0.9 q=47.0 size=     256KiB time=00:00:01.60 bitrate=1310.9kbits/s speed=0.014x elapsed=0:01:53.97    \nframe=   98 fps=0.9 q=47.0 size=     256KiB time=00:00:01.60 bitrate=1310.9kbits/s speed=0.014x elapsed=0:01:54.52    \nframe=   99 fps=0.9 q=46.0 size=     256KiB time=00:00:01.61 bitrate=1297.4kbits/s speed=0.014x elapsed=0:01:55.07    \nframe=  100 fps=0.9 q=40.8 size=     256KiB time=00:00:01.63 bitrate=1284.2kbits/s speed=0.0141x elapsed=0:01:55.61    \nframe=  100 fps=0.9 q=40.8 size=     256KiB time=00:00:01.63 bitrate=1284.2kbits/s speed=0.0141x elapsed=0:01:56.15    \nframe=  101 fps=0.9 q=45.8 size=     256KiB time=00:00:01.65 bitrate=1271.2kbits/s speed=0.0141x elapsed=0:01:56.68    \nframe=  101 fps=0.9 q=45.8 size=     256KiB time=00:00:01.65 bitrate=1271.2kbits/s speed=0.0141x elapsed=0:01:57.21    \nframe=  101 fps=0.9 q=45.8 size=     256KiB time=00:00:01.65 bitrate=1271.2kbits/s speed=0.014x elapsed=0:01:57.74    \nframe=  101 fps=0.9 q=45.8 size=     256KiB time=00:00:01.65 bitrate=1271.2kbits/s speed=0.014x elapsed=0:01:58.26    \nframe=  101 fps=0.9 q=45.8 size=     256KiB time=00:00:01.65 bitrate=1271.2kbits/s speed=0.0139x elapsed=0:01:58.78    \nframe=  102 fps=0.9 q=47.0 size=     256KiB time=00:00:01.66 bitrate=1258.5kbits/s speed=0.014x elapsed=0:01:59.29    \nframe=  102 fps=0.9 q=47.0 size=     256KiB time=00:00:01.66 bitrate=1258.5kbits/s speed=0.0139x elapsed=0:01:59.84    \nframe=  102 fps=0.8 q=47.0 size=     256KiB time=00:00:01.66 bitrate=1258.5kbits/s speed=0.0138x elapsed=0:02:00.37    \nframe=  103 fps=0.9 q=46.9 size=     256KiB time=00:00:01.68 bitrate=1246.0kbits/s speed=0.0139x elapsed=0:02:00.90    \nframe=  104 fps=0.9 q=40.8 size=     256KiB time=00:00:01.70 bitrate=1233.8kbits/s speed=0.014x elapsed=0:02:01.43    \nframe=  105 fps=0.9 q=46.7 size=     256KiB time=00:00:01.71 bitrate=1221.8kbits/s speed=0.0141x elapsed=0:02:01.95    \nframe=  105 fps=0.9 q=46.7 size=     256KiB time=00:00:01.71 bitrate=1221.8kbits/s speed=0.014x elapsed=0:02:02.48    \nframe=  105 fps=0.9 q=46.7 size=     256KiB time=00:00:01.71 bitrate=1221.8kbits/s speed=0.014x elapsed=0:02:03.03    \nframe=  105 fps=0.8 q=46.7 size=     256KiB time=00:00:01.71 bitrate=1221.8kbits/s speed=0.0139x elapsed=0:02:03.57    \nframe=  105 fps=0.8 q=46.7 size=     256KiB time=00:00:01.71 bitrate=1221.8kbits/s speed=0.0138x elapsed=0:02:04.10    \nframe=  105 fps=0.8 q=46.7 size=     256KiB time=00:00:01.71 bitrate=1221.8kbits/s speed=0.0138x elapsed=0:02:04.62    \nframe=  106 fps=0.8 q=47.0 size=     256KiB time=00:00:01.73 bitrate=1210.1kbits/s speed=0.0139x elapsed=0:02:05.14    \nframe=  107 fps=0.9 q=47.0 size=     256KiB time=00:00:01.75 bitrate=1198.6kbits/s speed=0.0139x elapsed=0:02:05.68    \nframe=  107 fps=0.8 q=47.0 size=     256KiB time=00:00:01.75 bitrate=1198.6kbits/s speed=0.0139x elapsed=0:02:06.22    \nframe=  108 fps=0.9 q=41.0 size=     256KiB time=00:00:01.76 bitrate=1187.3kbits/s speed=0.0139x elapsed=0:02:06.73    \nframe=  109 fps=0.9 q=45.6 size=     256KiB time=00:00:01.78 bitrate=1176.2kbits/s speed=0.014x elapsed=0:02:07.26    \nframe=  109 fps=0.9 q=45.6 size=     256KiB time=00:00:01.78 bitrate=1176.2kbits/s speed=0.014x elapsed=0:02:07.78    \nframe=  109 fps=0.8 q=45.6 size=     256KiB time=00:00:01.78 bitrate=1176.2kbits/s speed=0.0139x elapsed=0:02:08.30    \nframe=  110 fps=0.9 q=47.0 size=     256KiB time=00:00:01.80 bitrate=1165.3kbits/s speed=0.014x elapsed=0:02:08.83    \nframe=  111 fps=0.9 q=46.0 size=     256KiB time=00:00:01.81 bitrate=1154.6kbits/s speed=0.014x elapsed=0:02:09.35    \nframe=  111 fps=0.9 q=46.0 size=     256KiB time=00:00:01.81 bitrate=1154.6kbits/s speed=0.014x elapsed=0:02:09.92    \nframe=  111 fps=0.9 q=46.0 size=     256KiB time=00:00:01.81 bitrate=1154.6kbits/s speed=0.0139x elapsed=0:02:10.49    \nframe=  111 fps=0.8 q=46.0 size=     256KiB time=00:00:01.81 bitrate=1154.6kbits/s speed=0.0139x elapsed=0:02:11.05    \nframe=  111 fps=0.8 q=46.0 size=     256KiB time=00:00:01.81 bitrate=1154.6kbits/s speed=0.0138x elapsed=0:02:11.61    \nframe=  112 fps=0.8 q=40.7 size=     256KiB time=00:00:01.83 bitrate=1144.1kbits/s speed=0.0139x elapsed=0:02:12.14    \nframe=  113 fps=0.9 q=45.6 size=     256KiB time=00:00:01.85 bitrate=1133.8kbits/s speed=0.0139x elapsed=0:02:12.66    \nframe=  114 fps=0.9 q=47.0 size=     256KiB time=00:00:01.86 bitrate=1123.7kbits/s speed=0.014x elapsed=0:02:13.18    \nframe=  114 fps=0.9 q=47.0 size=     256KiB time=00:00:01.86 bitrate=1123.7kbits/s speed=0.014x elapsed=0:02:13.68    \nframe=  115 fps=0.9 q=46.0 size=     256KiB time=00:00:01.88 bitrate=1113.7kbits/s speed=0.014x elapsed=0:02:14.21    \nframe=  115 fps=0.9 q=46.0 size=     256KiB time=00:00:01.88 bitrate=1113.7kbits/s speed=0.014x elapsed=0:02:14.74    \nframe=  116 fps=0.9 q=40.7 size=     256KiB time=00:00:01.90 bitrate=1103.9kbits/s speed=0.014x elapsed=0:02:15.26    \nframe=  117 fps=0.9 q=46.0 size=     256KiB time=00:00:01.91 bitrate=1094.3kbits/s speed=0.0141x elapsed=0:02:15.79    \nframe=  117 fps=0.9 q=46.0 size=     256KiB time=00:00:01.91 bitrate=1094.3kbits/s speed=0.0141x elapsed=0:02:16.29    \nframe=  118 fps=0.9 q=47.0 size=     256KiB time=00:00:01.93 bitrate=1084.9kbits/s speed=0.0141x elapsed=0:02:16.81    \nframe=  118 fps=0.9 q=47.0 size=     256KiB time=00:00:01.93 bitrate=1084.9kbits/s speed=0.0141x elapsed=0:02:17.33    \nframe=  118 fps=0.9 q=47.0 size=     256KiB time=00:00:01.93 bitrate=1084.9kbits/s speed=0.014x elapsed=0:02:17.92    \nframe=  118 fps=0.9 q=47.0 size=     256KiB time=00:00:01.93 bitrate=1084.9kbits/s speed=0.014x elapsed=0:02:18.44    \nframe=  120 fps=0.9 q=46.0 size=     256KiB time=00:00:01.96 bitrate=1066.5kbits/s speed=0.0142x elapsed=0:02:18.97    \nframe=  120 fps=0.9 q=46.0 size=     256KiB time=00:00:01.96 bitrate=1066.5kbits/s speed=0.0141x elapsed=0:02:19.50    \nframe=  120 fps=0.9 q=46.0 size=     256KiB time=00:00:01.96 bitrate=1066.5kbits/s speed=0.014x elapsed=0:02:20.04    \nframe=  122 fps=0.9 q=45.9 size=     256KiB time=00:00:02.00 bitrate=1048.8kbits/s speed=0.0142x elapsed=0:02:20.54    \nframe=  122 fps=0.9 q=45.9 size=     256KiB time=00:00:02.00 bitrate=1048.8kbits/s speed=0.0142x elapsed=0:02:21.07    \nframe=  122 fps=0.9 q=45.9 size=     256KiB time=00:00:02.00 bitrate=1048.8kbits/s speed=0.0141x elapsed=0:02:21.62    \nframe=  122 fps=0.9 q=45.9 size=     256KiB time=00:00:02.00 bitrate=1048.8kbits/s speed=0.0141x elapsed=0:02:22.20    \nframe=  123 fps=0.9 q=47.0 size=     256KiB time=00:00:02.01 bitrate=1040.1kbits/s speed=0.0141x elapsed=0:02:22.72    \nframe=  123 fps=0.9 q=47.0 size=     256KiB time=00:00:02.01 bitrate=1040.1kbits/s speed=0.0141x elapsed=0:02:23.23    \nframe=  124 fps=0.9 q=46.0 size=     256KiB time=00:00:02.03 bitrate=1031.6kbits/s speed=0.0141x elapsed=0:02:23.75    \nframe=  125 fps=0.9 q=40.6 size=     256KiB time=00:00:02.05 bitrate=1023.2kbits/s speed=0.0142x elapsed=0:02:24.27    \nframe=  126 fps=0.9 q=45.6 size=     256KiB time=00:00:02.06 bitrate=1014.9kbits/s speed=0.0143x elapsed=0:02:24.78    \nframe=  126 fps=0.9 q=45.6 size=     256KiB time=00:00:02.06 bitrate=1014.9kbits/s speed=0.0142x elapsed=0:02:25.35    \nframe=  126 fps=0.9 q=45.6 size=     256KiB time=00:00:02.06 bitrate=1014.9kbits/s speed=0.0142x elapsed=0:02:25.89    \nframe=  129 fps=0.9 q=40.7 size=     256KiB time=00:00:02.11 bitrate= 990.9kbits/s speed=0.0145x elapsed=0:02:26.40    \nframe=  129 fps=0.9 q=40.7 size=     256KiB time=00:00:02.11 bitrate= 990.9kbits/s speed=0.0144x elapsed=0:02:26.93    \nframe=  129 fps=0.9 q=40.7 size=     256KiB time=00:00:02.11 bitrate= 990.9kbits/s speed=0.0144x elapsed=0:02:27.46    \nframe=  130 fps=0.9 q=45.5 size=     256KiB time=00:00:02.13 bitrate= 983.2kbits/s speed=0.0144x elapsed=0:02:28.01    \nframe=  131 fps=0.9 q=47.0 size=     256KiB time=00:00:02.15 bitrate= 975.6kbits/s speed=0.0145x elapsed=0:02:28.54    \nframe=  131 fps=0.9 q=47.0 size=     256KiB time=00:00:02.15 bitrate= 975.6kbits/s speed=0.0144x elapsed=0:02:29.05    \nframe=  132 fps=0.9 q=46.0 size=     256KiB time=00:00:02.16 bitrate= 968.1kbits/s speed=0.0145x elapsed=0:02:29.60    \nframe=  133 fps=0.9 q=40.6 size=     256KiB time=00:00:02.18 bitrate= 960.7kbits/s speed=0.0145x elapsed=0:02:30.12    \nframe=  133 fps=0.9 q=40.6 size=     256KiB time=00:00:02.18 bitrate= 960.7kbits/s speed=0.0145x elapsed=0:02:30.64    \nframe=  133 fps=0.9 q=40.6 size=     256KiB time=00:00:02.18 bitrate= 960.7kbits/s speed=0.0144x elapsed=0:02:31.19    \nframe=  134 fps=0.9 q=46.0 size=     256KiB time=00:00:02.20 bitrate= 953.4kbits/s speed=0.0145x elapsed=0:02:31.70    \nframe=  136 fps=0.9 q=40.3 size=     256KiB time=00:00:02.23 bitrate= 939.2kbits/s speed=0.0147x elapsed=0:02:32.22    \nframe=  136 fps=0.9 q=40.3 size=     256KiB time=00:00:02.23 bitrate= 939.2kbits/s speed=0.0146x elapsed=0:02:32.73    \nframe=  136 fps=0.9 q=40.3 size=     256KiB time=00:00:02.23 bitrate= 939.2kbits/s speed=0.0146x elapsed=0:02:33.27    \nframe=  137 fps=0.9 q=45.2 size=     256KiB time=00:00:02.25 bitrate= 932.2kbits/s speed=0.0146x elapsed=0:02:33.80    \nframe=  138 fps=0.9 q=46.0 size=     256KiB time=00:00:02.26 bitrate= 925.4kbits/s speed=0.0147x elapsed=0:02:34.31    \nframe=  139 fps=0.9 q=47.0 size=     256KiB time=00:00:02.28 bitrate= 918.6kbits/s speed=0.0147x elapsed=0:02:34.83    \nframe=  139 fps=0.9 q=47.0 size=     256KiB time=00:00:02.28 bitrate= 918.6kbits/s speed=0.0147x elapsed=0:02:35.36    \nframe=  141 fps=0.9 q=45.6 size=     256KiB time=00:00:02.31 bitrate= 905.4kbits/s speed=0.0149x elapsed=0:02:35.88    \nframe=  142 fps=0.9 q=47.1 size=     256KiB time=00:00:02.33 bitrate= 898.9kbits/s speed=0.0149x elapsed=0:02:36.39    \nframe=  143 fps=0.9 q=47.0 size=     256KiB time=00:00:02.35 bitrate= 892.6kbits/s speed=0.015x elapsed=0:02:36.90    \nframe=  145 fps=0.9 q=45.7 size=     256KiB time=00:00:02.38 bitrate= 880.1kbits/s speed=0.0151x elapsed=0:02:37.44    \nframe=  145 fps=0.9 q=45.7 size=     256KiB time=00:00:02.38 bitrate= 880.1kbits/s speed=0.0151x elapsed=0:02:37.96    \nframe=  146 fps=0.9 q=47.0 size=     256KiB time=00:00:02.40 bitrate= 874.0kbits/s speed=0.0151x elapsed=0:02:38.48    \nframe=  147 fps=0.9 q=46.0 size=     256KiB time=00:00:02.41 bitrate= 867.9kbits/s speed=0.0152x elapsed=0:02:39.05    \nframe=  148 fps=0.9 q=40.5 size=     256KiB time=00:00:02.43 bitrate= 862.0kbits/s speed=0.0152x elapsed=0:02:39.59    \nframe=  148 fps=0.9 q=40.5 size=     256KiB time=00:00:02.43 bitrate= 862.0kbits/s speed=0.0152x elapsed=0:02:40.10    \nframe=  148 fps=0.9 q=40.5 size=     256KiB time=00:00:02.43 bitrate= 862.0kbits/s speed=0.0151x elapsed=0:02:40.63    \nframe=  149 fps=0.9 q=45.8 size=     256KiB time=00:00:02.45 bitrate= 856.1kbits/s speed=0.0152x elapsed=0:02:41.17    \nframe=  150 fps=0.9 q=46.0 size=     256KiB time=00:00:02.46 bitrate= 850.3kbits/s speed=0.0153x elapsed=0:02:41.69    \nframe=  150 fps=0.9 q=46.0 size=     256KiB time=00:00:02.46 bitrate= 850.3kbits/s speed=0.0152x elapsed=0:02:42.22    \nframe=  152 fps=0.9 q=45.3 size=     256KiB time=00:00:02.50 bitrate= 839.0kbits/s speed=0.0154x elapsed=0:02:42.75    \nframe=  152 fps=0.9 q=45.3 size=     256KiB time=00:00:02.50 bitrate= 839.0kbits/s speed=0.0153x elapsed=0:02:43.27    \nframe=  153 fps=0.9 q=46.0 size=     256KiB time=00:00:02.51 bitrate= 833.4kbits/s speed=0.0154x elapsed=0:02:43.79    \nframe=  153 fps=0.9 q=46.0 size=     256KiB time=00:00:02.51 bitrate= 833.4kbits/s speed=0.0153x elapsed=0:02:44.33    \nframe=  155 fps=0.9 q=40.4 size=     256KiB time=00:00:02.55 bitrate= 822.6kbits/s speed=0.0155x elapsed=0:02:44.85    \nframe=  156 fps=0.9 q=45.5 size=     256KiB time=00:00:02.56 bitrate= 817.2kbits/s speed=0.0155x elapsed=0:02:45.36    \nframe=  156 fps=0.9 q=45.5 size=     256KiB time=00:00:02.56 bitrate= 817.2kbits/s speed=0.0155x elapsed=0:02:45.89    \nframe=  158 fps=0.9 q=46.0 size=     256KiB time=00:00:02.60 bitrate= 806.7kbits/s speed=0.0156x elapsed=0:02:46.41    \nframe=  159 fps=1.0 q=40.5 size=     256KiB time=00:00:02.61 bitrate= 801.6kbits/s speed=0.0157x elapsed=0:02:46.92    \nframe=  159 fps=0.9 q=40.5 size=     256KiB time=00:00:02.61 bitrate= 801.6kbits/s speed=0.0156x elapsed=0:02:47.44    \nframe=  160 fps=1.0 q=45.7 size=     256KiB time=00:00:02.63 bitrate= 796.5kbits/s speed=0.0157x elapsed=0:02:47.95    \nframe=  161 fps=1.0 q=46.0 size=     256KiB time=00:00:02.65 bitrate= 791.5kbits/s speed=0.0157x elapsed=0:02:48.49    \nframe=  162 fps=1.0 q=46.0 size=     256KiB time=00:00:02.66 bitrate= 786.6kbits/s speed=0.0158x elapsed=0:02:49.00    \nframe=  163 fps=1.0 q=40.4 size=     256KiB time=00:00:02.68 bitrate= 781.7kbits/s speed=0.0158x elapsed=0:02:49.54    \nframe=  163 fps=1.0 q=40.4 size=     256KiB time=00:00:02.68 bitrate= 781.7kbits/s speed=0.0158x elapsed=0:02:50.04    \nframe=  164 fps=1.0 q=44.8 size=     256KiB time=00:00:02.70 bitrate= 776.9kbits/s speed=0.0158x elapsed=0:02:50.57    \nframe=  164 fps=1.0 q=44.8 size=     256KiB time=00:00:02.70 bitrate= 776.9kbits/s speed=0.0158x elapsed=0:02:51.12    \nframe=  164 fps=1.0 q=44.8 size=     256KiB time=00:00:02.70 bitrate= 776.9kbits/s speed=0.0157x elapsed=0:02:51.69    \nframe=  164 fps=1.0 q=44.8 size=     256KiB time=00:00:02.70 bitrate= 776.9kbits/s speed=0.0157x elapsed=0:02:52.25    \nframe=  164 fps=0.9 q=44.8 size=     256KiB time=00:00:02.70 bitrate= 776.9kbits/s speed=0.0156x elapsed=0:02:52.83    \nframe=  164 fps=0.9 q=44.8 size=     256KiB time=00:00:02.70 bitrate= 776.9kbits/s speed=0.0156x elapsed=0:02:53.39    \nframe=  164 fps=0.9 q=44.8 size=     256KiB time=00:00:02.70 bitrate= 776.9kbits/s speed=0.0155x elapsed=0:02:53.97    \nframe=  164 fps=0.9 q=44.8 size=     256KiB time=00:00:02.70 bitrate= 776.9kbits/s speed=0.0155x elapsed=0:02:54.54    \nframe=  164 fps=0.9 q=44.8 size=     256KiB time=00:00:02.70 bitrate= 776.9kbits/s speed=0.0154x elapsed=0:02:55.10    \nframe=  164 fps=0.9 q=44.8 size=     256KiB time=00:00:02.70 bitrate= 776.9kbits/s speed=0.0154x elapsed=0:02:55.66    \nframe=  165 fps=0.9 q=46.0 size=     256KiB time=00:00:02.71 bitrate= 772.1kbits/s speed=0.0154x elapsed=0:02:56.18    \nframe=  167 fps=0.9 q=45.5 size=     256KiB time=00:00:02.75 bitrate= 762.7kbits/s speed=0.0156x elapsed=0:02:56.70    \nframe=  167 fps=0.9 q=45.5 size=     256KiB time=00:00:02.75 bitrate= 762.7kbits/s speed=0.0155x elapsed=0:02:57.22    \nframe=  167 fps=0.9 q=45.5 size=     256KiB time=00:00:02.75 bitrate= 762.7kbits/s speed=0.0155x elapsed=0:02:57.74    \nframe=  169 fps=0.9 q=46.0 size=     256KiB time=00:00:02.78 bitrate= 753.6kbits/s speed=0.0156x elapsed=0:02:58.26    \nframe=  170 fps=1.0 q=40.4 size=     256KiB time=00:00:02.80 bitrate= 749.1kbits/s speed=0.0157x elapsed=0:02:58.76    \nframe=  172 fps=1.0 q=47.0 size=     256KiB time=00:00:02.83 bitrate= 740.3kbits/s speed=0.0158x elapsed=0:02:59.29    \nframe=  174 fps=1.0 q=40.2 size=     256KiB time=00:00:02.86 bitrate= 731.7kbits/s speed=0.0159x elapsed=0:02:59.79    \nframe=  174 fps=1.0 q=40.2 size=     256KiB time=00:00:02.86 bitrate= 731.7kbits/s speed=0.0159x elapsed=0:03:00.31    \nframe=  176 fps=1.0 q=46.0 size=     256KiB time=00:00:02.90 bitrate= 723.3kbits/s speed=0.016x elapsed=0:03:00.83    \nframe=  178 fps=1.0 q=44.8 size=     512KiB time=00:00:02.93 bitrate=1430.0kbits/s speed=0.0162x elapsed=0:03:01.34    \nframe=  179 fps=1.0 q=46.0 size=     512KiB time=00:00:02.95 bitrate=1421.9kbits/s speed=0.0162x elapsed=0:03:01.86    \nframe=  180 fps=1.0 q=46.0 size=     512KiB time=00:00:02.96 bitrate=1413.9kbits/s speed=0.0163x elapsed=0:03:02.37    \nframe=  180 fps=1.0 q=46.0 size=     512KiB time=00:00:02.96 bitrate=1413.9kbits/s speed=0.0162x elapsed=0:03:02.89    \nframe=  181 fps=1.0 q=40.2 size=     512KiB time=00:00:02.98 bitrate=1406.0kbits/s speed=0.0163x elapsed=0:03:03.41    \nframe=  181 fps=1.0 q=40.2 size=     512KiB time=00:00:02.98 bitrate=1406.0kbits/s speed=0.0162x elapsed=0:03:03.95    \nframe=  182 fps=1.0 q=45.3 size=     512KiB time=00:00:03.00 bitrate=1398.2kbits/s speed=0.0163x elapsed=0:03:04.48    \nframe=  182 fps=1.0 q=45.3 size=     512KiB time=00:00:03.00 bitrate=1398.2kbits/s speed=0.0162x elapsed=0:03:05.03    \nframe=  183 fps=1.0 q=46.0 size=     512KiB time=00:00:03.01 bitrate=1390.5kbits/s speed=0.0163x elapsed=0:03:05.55    \nframe=  184 fps=1.0 q=46.0 size=     512KiB time=00:00:03.03 bitrate=1382.9kbits/s speed=0.0163x elapsed=0:03:06.10    \nframe=  185 fps=1.0 q=40.4 size=     512KiB time=00:00:03.05 bitrate=1375.3kbits/s speed=0.0163x elapsed=0:03:06.67    \nframe=  185 fps=1.0 q=40.4 size=     512KiB time=00:00:03.05 bitrate=1375.3kbits/s speed=0.0163x elapsed=0:03:07.22    \nframe=  185 fps=1.0 q=40.4 size=     512KiB time=00:00:03.05 bitrate=1375.3kbits/s speed=0.0162x elapsed=0:03:07.84    \nframe=  185 fps=1.0 q=40.4 size=     512KiB time=00:00:03.05 bitrate=1375.3kbits/s speed=0.0162x elapsed=0:03:08.51    \nframe=  185 fps=1.0 q=40.4 size=     512KiB time=00:00:03.05 bitrate=1375.3kbits/s speed=0.0161x elapsed=0:03:09.21    \nframe=  185 fps=1.0 q=40.4 size=     512KiB time=00:00:03.05 bitrate=1375.3kbits/s speed=0.0161x elapsed=0:03:09.82    \nframe=  185 fps=1.0 q=40.4 size=     512KiB time=00:00:03.05 bitrate=1375.3kbits/s speed=0.016x elapsed=0:03:10.43    \nframe=  185 fps=1.0 q=40.4 size=     512KiB time=00:00:03.05 bitrate=1375.3kbits/s speed=0.016x elapsed=0:03:10.98    \nframe=  185 fps=1.0 q=40.4 size=     512KiB time=00:00:03.05 bitrate=1375.3kbits/s speed=0.0159x elapsed=0:03:11.51    \nframe=  185 fps=1.0 q=40.4 size=     512KiB time=00:00:03.05 bitrate=1375.3kbits/s speed=0.0159x elapsed=0:03:12.06    \nframe=  186 fps=1.0 q=45.6 size=     512KiB time=00:00:03.06 bitrate=1367.8kbits/s speed=0.0159x elapsed=0:03:12.60    \nframe=  186 fps=1.0 q=45.6 size=     512KiB time=00:00:03.06 bitrate=1367.8kbits/s speed=0.0159x elapsed=0:03:13.16    \nframe=  187 fps=1.0 q=46.0 size=     512KiB time=00:00:03.08 bitrate=1360.4kbits/s speed=0.0159x elapsed=0:03:13.68    \nframe=  187 fps=1.0 q=46.0 size=     512KiB time=00:00:03.08 bitrate=1360.4kbits/s speed=0.0159x elapsed=0:03:14.20    \nframe=  187 fps=1.0 q=46.0 size=     512KiB time=00:00:03.08 bitrate=1360.4kbits/s speed=0.0158x elapsed=0:03:14.74    \nframe=  188 fps=1.0 q=46.0 size=     512KiB time=00:00:03.10 bitrate=1353.1kbits/s speed=0.0159x elapsed=0:03:15.30    \nframe=  188 fps=1.0 q=46.0 size=     512KiB time=00:00:03.10 bitrate=1353.1kbits/s speed=0.0158x elapsed=0:03:15.99    \nframe=  189 fps=1.0 q=39.9 size=     512KiB time=00:00:03.11 bitrate=1345.9kbits/s speed=0.0159x elapsed=0:03:16.56    \nframe=  189 fps=1.0 q=39.9 size=     512KiB time=00:00:03.11 bitrate=1345.9kbits/s speed=0.0158x elapsed=0:03:17.08    \nframe=  189 fps=1.0 q=39.9 size=     512KiB time=00:00:03.11 bitrate=1345.9kbits/s speed=0.0158x elapsed=0:03:17.64    \nframe=  189 fps=1.0 q=39.9 size=     512KiB time=00:00:03.11 bitrate=1345.9kbits/s speed=0.0157x elapsed=0:03:18.24    \nframe=  190 fps=1.0 q=44.7 size=     512KiB time=00:00:03.13 bitrate=1338.7kbits/s speed=0.0158x elapsed=0:03:18.83    \nframe=  190 fps=1.0 q=44.7 size=     512KiB time=00:00:03.13 bitrate=1338.7kbits/s speed=0.0157x elapsed=0:03:19.42    \nframe=  190 fps=0.9 q=44.7 size=     512KiB time=00:00:03.13 bitrate=1338.7kbits/s speed=0.0157x elapsed=0:03:20.04    \nframe=  190 fps=0.9 q=44.7 size=     512KiB time=00:00:03.13 bitrate=1338.7kbits/s speed=0.0156x elapsed=0:03:20.59    \nframe=  192 fps=1.0 q=40.2 size=     512KiB time=00:00:03.16 bitrate=1324.6kbits/s speed=0.0157x elapsed=0:03:21.17    \nframe=  192 fps=1.0 q=40.2 size=     512KiB time=00:00:03.16 bitrate=1324.6kbits/s speed=0.0157x elapsed=0:03:21.69    \nframe=  192 fps=0.9 q=40.2 size=     512KiB time=00:00:03.16 bitrate=1324.6kbits/s speed=0.0157x elapsed=0:03:22.31    \nframe=  193 fps=1.0 q=45.6 size=     512KiB time=00:00:03.18 bitrate=1317.7kbits/s speed=0.0157x elapsed=0:03:22.96    \nframe=  193 fps=0.9 q=45.6 size=     512KiB time=00:00:03.18 bitrate=1317.7kbits/s speed=0.0156x elapsed=0:03:23.53    \nframe=  193 fps=0.9 q=45.6 size=     512KiB time=00:00:03.18 bitrate=1317.7kbits/s speed=0.0156x elapsed=0:03:24.08    \nframe=  193 fps=0.9 q=45.6 size=     512KiB time=00:00:03.18 bitrate=1317.7kbits/s speed=0.0156x elapsed=0:03:24.66    \nframe=  194 fps=0.9 q=46.0 size=     512KiB time=00:00:03.20 bitrate=1310.8kbits/s speed=0.0156x elapsed=0:03:25.21    \nframe=  194 fps=0.9 q=46.0 size=     512KiB time=00:00:03.20 bitrate=1310.8kbits/s speed=0.0156x elapsed=0:03:25.76    \nframe=  195 fps=0.9 q=46.0 size=     512KiB time=00:00:03.21 bitrate=1304.0kbits/s speed=0.0156x elapsed=0:03:26.32    \nframe=  196 fps=0.9 q=40.6 size=     512KiB time=00:00:03.23 bitrate=1297.3kbits/s speed=0.0156x elapsed=0:03:26.88    \nframe=  196 fps=0.9 q=40.6 size=     512KiB time=00:00:03.23 bitrate=1297.3kbits/s speed=0.0156x elapsed=0:03:27.51    \nframe=  196 fps=0.9 q=40.6 size=     512KiB time=00:00:03.23 bitrate=1297.3kbits/s speed=0.0155x elapsed=0:03:28.08    \nframe=  196 fps=0.9 q=40.6 size=     512KiB time=00:00:03.23 bitrate=1297.3kbits/s speed=0.0155x elapsed=0:03:28.61    \nframe=  196 fps=0.9 q=40.6 size=     512KiB time=00:00:03.23 bitrate=1297.3kbits/s speed=0.0155x elapsed=0:03:29.13    \nframe=  196 fps=0.9 q=40.6 size=     512KiB time=00:00:03.23 bitrate=1297.3kbits/s speed=0.0154x elapsed=0:03:29.68    \nframe=  197 fps=0.9 q=45.6 size=     512KiB time=00:00:03.25 bitrate=1290.7kbits/s speed=0.0155x elapsed=0:03:30.32    \nframe=  197 fps=0.9 q=45.6 size=     512KiB time=00:00:03.25 bitrate=1290.7kbits/s speed=0.0154x elapsed=0:03:30.99    \nframe=  197 fps=0.9 q=45.6 size=     512KiB time=00:00:03.25 bitrate=1290.7kbits/s speed=0.0154x elapsed=0:03:31.53    \nframe=  197 fps=0.9 q=45.6 size=     512KiB time=00:00:03.25 bitrate=1290.7kbits/s speed=0.0153x elapsed=0:03:32.07    \nframe=  197 fps=0.9 q=45.6 size=     512KiB time=00:00:03.25 bitrate=1290.7kbits/s speed=0.0153x elapsed=0:03:32.67    \nframe=  198 fps=0.9 q=47.0 size=     512KiB time=00:00:03.26 bitrate=1284.1kbits/s speed=0.0153x elapsed=0:03:33.32    \nframe=  198 fps=0.9 q=47.0 size=     512KiB time=00:00:03.26 bitrate=1284.1kbits/s speed=0.0153x elapsed=0:03:33.84    \nframe=  199 fps=0.9 q=45.0 size=     512KiB time=00:00:03.28 bitrate=1277.6kbits/s speed=0.0153x elapsed=0:03:34.41    \nframe=  199 fps=0.9 q=45.0 size=     512KiB time=00:00:03.28 bitrate=1277.6kbits/s speed=0.0153x elapsed=0:03:34.98    \nframe=  199 fps=0.9 q=45.0 size=     512KiB time=00:00:03.28 bitrate=1277.6kbits/s speed=0.0152x elapsed=0:03:35.57    \nframe=  200 fps=0.9 q=40.5 size=     512KiB time=00:00:03.30 bitrate=1271.1kbits/s speed=0.0153x elapsed=0:03:36.16    \nframe=  200 fps=0.9 q=40.5 size=     512KiB time=00:00:03.30 bitrate=1271.1kbits/s speed=0.0152x elapsed=0:03:36.69    \nframe=  201 fps=0.9 q=45.5 size=     512KiB time=00:00:03.31 bitrate=1264.7kbits/s speed=0.0153x elapsed=0:03:37.23    \nframe=  201 fps=0.9 q=45.5 size=     512KiB time=00:00:03.31 bitrate=1264.7kbits/s speed=0.0152x elapsed=0:03:37.78    \nframe=  201 fps=0.9 q=45.5 size=     512KiB time=00:00:03.31 bitrate=1264.7kbits/s speed=0.0152x elapsed=0:03:38.38    \nframe=  201 fps=0.9 q=45.5 size=     512KiB time=00:00:03.31 bitrate=1264.7kbits/s speed=0.0151x elapsed=0:03:38.93    \nframe=  201 fps=0.9 q=45.5 size=     512KiB time=00:00:03.31 bitrate=1264.7kbits/s speed=0.0151x elapsed=0:03:39.45    \nframe=  201 fps=0.9 q=45.5 size=     512KiB time=00:00:03.31 bitrate=1264.7kbits/s speed=0.0151x elapsed=0:03:40.02    \nframe=  201 fps=0.9 q=45.5 size=     512KiB time=00:00:03.31 bitrate=1264.7kbits/s speed=0.015x elapsed=0:03:40.55    \nframe=  201 fps=0.9 q=45.5 size=     512KiB time=00:00:03.31 bitrate=1264.7kbits/s speed=0.015x elapsed=0:03:41.10    \nframe=  201 fps=0.9 q=45.5 size=     512KiB time=00:00:03.31 bitrate=1264.7kbits/s speed=0.015x elapsed=0:03:41.63    \nframe=  201 fps=0.9 q=45.5 size=     512KiB time=00:00:03.31 bitrate=1264.7kbits/s speed=0.0149x elapsed=0:03:42.17    \nframe=  203 fps=0.9 q=45.0 size=     512KiB time=00:00:03.35 bitrate=1252.1kbits/s speed=0.015x elapsed=0:03:42.73    \nframe=  203 fps=0.9 q=45.0 size=     512KiB time=00:00:03.35 bitrate=1252.1kbits/s speed=0.015x elapsed=0:03:43.32    \nframe=  203 fps=0.9 q=45.0 size=     512KiB time=00:00:03.35 bitrate=1252.1kbits/s speed=0.015x elapsed=0:03:43.84    \nframe=  203 fps=0.9 q=45.0 size=     512KiB time=00:00:03.35 bitrate=1252.1kbits/s speed=0.0149x elapsed=0:03:44.39    \nframe=  203 fps=0.9 q=45.0 size=     512KiB time=00:00:03.35 bitrate=1252.1kbits/s speed=0.0149x elapsed=0:03:44.93    \nframe=  203 fps=0.9 q=45.0 size=     512KiB time=00:00:03.35 bitrate=1252.1kbits/s speed=0.0149x elapsed=0:03:45.46    \nframe=  203 fps=0.9 q=45.0 size=     512KiB time=00:00:03.35 bitrate=1252.1kbits/s speed=0.0148x elapsed=0:03:46.02    \nframe=  204 fps=0.9 q=40.2 size=     512KiB time=00:00:03.36 bitrate=1245.9kbits/s speed=0.0149x elapsed=0:03:46.53    \nframe=  204 fps=0.9 q=40.2 size=     512KiB time=00:00:03.36 bitrate=1245.9kbits/s speed=0.0148x elapsed=0:03:47.06    \nframe=  205 fps=0.9 q=45.6 size=     512KiB time=00:00:03.38 bitrate=1239.8kbits/s speed=0.0149x elapsed=0:03:47.60    \nframe=  206 fps=0.9 q=46.0 size=     512KiB time=00:00:03.40 bitrate=1233.7kbits/s speed=0.0149x elapsed=0:03:48.14    \nframe=  206 fps=0.9 q=46.0 size=     512KiB time=00:00:03.40 bitrate=1233.7kbits/s speed=0.0149x elapsed=0:03:48.73    \nframe=  206 fps=0.9 q=46.0 size=     512KiB time=00:00:03.40 bitrate=1233.7kbits/s speed=0.0148x elapsed=0:03:49.30    \nframe=  206 fps=0.9 q=46.0 size=     512KiB time=00:00:03.40 bitrate=1233.7kbits/s speed=0.0148x elapsed=0:03:49.84    \nframe=  206 fps=0.9 q=46.0 size=     512KiB time=00:00:03.40 bitrate=1233.7kbits/s speed=0.0148x elapsed=0:03:50.39    \nframe=  207 fps=0.9 q=46.0 size=     512KiB time=00:00:03.41 bitrate=1227.7kbits/s speed=0.0148x elapsed=0:03:50.97    \nframe=  208 fps=0.9 q=40.2 size=     512KiB time=00:00:03.41 bitrate=1227.7kbits/s speed=0.0148x elapsed=0:03:51.52    \nframe=  208 fps=0.9 q=40.2 size=     512KiB time=00:00:03.43 bitrate=1221.7kbits/s speed=0.0148x elapsed=0:03:52.05    \nframe=  209 fps=0.9 q=45.2 size=     512KiB time=00:00:03.45 bitrate=1215.8kbits/s speed=0.0148x elapsed=0:03:52.59    \nframe=  209 fps=0.9 q=45.2 size=     512KiB time=00:00:03.45 bitrate=1215.8kbits/s speed=0.0148x elapsed=0:03:53.12    \nframe=  209 fps=0.9 q=45.2 size=     512KiB time=00:00:03.45 bitrate=1215.8kbits/s speed=0.0148x elapsed=0:03:53.71    \nframe=  210 fps=0.9 q=46.0 size=     512KiB time=00:00:03.46 bitrate=1210.0kbits/s speed=0.0148x elapsed=0:03:54.29    \nframe=  211 fps=0.9 q=46.0 size=     512KiB time=00:00:03.48 bitrate=1204.2kbits/s speed=0.0148x elapsed=0:03:54.89    \nframe=  211 fps=0.9 q=46.0 size=     512KiB time=00:00:03.48 bitrate=1204.2kbits/s speed=0.0148x elapsed=0:03:55.44    \nframe=  211 fps=0.9 q=46.0 size=     512KiB time=00:00:03.48 bitrate=1204.2kbits/s speed=0.0148x elapsed=0:03:55.98    \nframe=  212 fps=0.9 q=40.0 size=     512KiB time=00:00:03.50 bitrate=1198.5kbits/s speed=0.0148x elapsed=0:03:56.51    \nframe=  213 fps=0.9 q=46.0 size=     512KiB time=00:00:03.51 bitrate=1192.8kbits/s speed=0.0148x elapsed=0:03:57.08    \nframe=  213 fps=0.9 q=46.0 size=     512KiB time=00:00:03.51 bitrate=1192.8kbits/s speed=0.0148x elapsed=0:03:57.61    \nframe=  213 fps=0.9 q=46.0 size=     512KiB time=00:00:03.51 bitrate=1192.8kbits/s speed=0.0148x elapsed=0:03:58.19    \nframe=  213 fps=0.9 q=46.0 size=     512KiB time=00:00:03.51 bitrate=1192.8kbits/s speed=0.0147x elapsed=0:03:58.75    \nframe=  213 fps=0.9 q=46.0 size=     512KiB time=00:00:03.51 bitrate=1192.8kbits/s speed=0.0147x elapsed=0:03:59.32    \nframe=  213 fps=0.9 q=46.0 size=     512KiB time=00:00:03.51 bitrate=1192.8kbits/s speed=0.0147x elapsed=0:03:59.84    \nframe=  213 fps=0.9 q=46.0 size=     512KiB time=00:00:03.51 bitrate=1192.8kbits/s speed=0.0146x elapsed=0:04:00.39    \nframe=  213 fps=0.9 q=46.0 size=     512KiB time=00:00:03.51 bitrate=1192.8kbits/s speed=0.0146x elapsed=0:04:00.98    \nframe=  213 fps=0.9 q=46.0 size=     512KiB time=00:00:03.51 bitrate=1192.8kbits/s speed=0.0146x elapsed=0:04:01.65    \nframe=  213 fps=0.9 q=46.0 size=     512KiB time=00:00:03.51 bitrate=1192.8kbits/s speed=0.0145x elapsed=0:04:02.25    \nframe=  213 fps=0.9 q=46.0 size=     512KiB time=00:00:03.51 bitrate=1192.8kbits/s speed=0.0145x elapsed=0:04:02.89    \nframe=  213 fps=0.9 q=46.0 size=     512KiB time=00:00:03.51 bitrate=1192.8kbits/s speed=0.0144x elapsed=0:04:03.52    \nframe=  213 fps=0.9 q=46.0 size=     512KiB time=00:00:03.51 bitrate=1192.8kbits/s speed=0.0144x elapsed=0:04:04.12    \nframe=  213 fps=0.9 q=46.0 size=     512KiB time=00:00:03.51 bitrate=1192.8kbits/s speed=0.0144x elapsed=0:04:04.78    \nframe=  213 fps=0.9 q=46.0 size=     512KiB time=00:00:03.51 bitrate=1192.8kbits/s speed=0.0143x elapsed=0:04:05.33    \nframe=  214 fps=0.9 q=40.0 size=     512KiB time=00:00:03.53 bitrate=1187.2kbits/s speed=0.0144x elapsed=0:04:05.88    \nframe=  214 fps=0.9 q=40.0 size=     512KiB time=00:00:03.53 bitrate=1187.2kbits/s speed=0.0143x elapsed=0:04:06.42    \nframe=  215 fps=0.9 q=44.7 size=     512KiB time=00:00:03.55 bitrate=1181.6kbits/s speed=0.0144x elapsed=0:04:06.94    \nframe=  215 fps=0.9 q=44.7 size=     512KiB time=00:00:03.55 bitrate=1181.6kbits/s speed=0.0143x elapsed=0:04:07.50    \nframe=  215 fps=0.9 q=44.7 size=     512KiB time=00:00:03.55 bitrate=1181.6kbits/s speed=0.0143x elapsed=0:04:08.05    \nframe=  218 fps=0.9 q=39.9 size=     512KiB time=00:00:03.60 bitrate=1165.2kbits/s speed=0.0145x elapsed=0:04:08.64    \nframe=  218 fps=0.9 q=39.9 size=     512KiB time=00:00:03.60 bitrate=1165.2kbits/s speed=0.0144x elapsed=0:04:09.18    \nframe=  218 fps=0.9 q=39.9 size=     512KiB time=00:00:03.60 bitrate=1165.2kbits/s speed=0.0144x elapsed=0:04:09.78    \nframe=  218 fps=0.9 q=39.9 size=     512KiB time=00:00:03.60 bitrate=1165.2kbits/s speed=0.0144x elapsed=0:04:10.33    \nframe=  218 fps=0.9 q=39.9 size=     512KiB time=00:00:03.60 bitrate=1165.2kbits/s speed=0.0144x elapsed=0:04:10.84    \nframe=  219 fps=0.9 q=44.5 size=     512KiB time=00:00:03.61 bitrate=1159.8kbits/s speed=0.0144x elapsed=0:04:11.39    \nframe=  219 fps=0.9 q=44.5 size=     512KiB time=00:00:03.61 bitrate=1159.8kbits/s speed=0.0144x elapsed=0:04:11.93    \nframe=  219 fps=0.9 q=44.5 size=     512KiB time=00:00:03.61 bitrate=1159.8kbits/s speed=0.0143x elapsed=0:04:12.45    \nframe=  221 fps=0.9 q=46.0 size=     512KiB time=00:00:03.63 bitrate=1154.5kbits/s speed=0.0144x elapsed=0:04:12.97    \nframe=  221 fps=0.9 q=46.0 size=     512KiB time=00:00:03.65 bitrate=1149.2kbits/s speed=0.0144x elapsed=0:04:13.50    \nframe=  222 fps=0.9 q=39.8 size=     512KiB time=00:00:03.66 bitrate=1144.0kbits/s speed=0.0144x elapsed=0:04:14.05    \nframe=  222 fps=0.9 q=39.8 size=     512KiB time=00:00:03.66 bitrate=1144.0kbits/s speed=0.0144x elapsed=0:04:14.60    \nframe=  223 fps=0.9 q=45.5 size=     512KiB time=00:00:03.68 bitrate=1138.8kbits/s speed=0.0144x elapsed=0:04:15.13    \nframe=  223 fps=0.9 q=45.5 size=     512KiB time=00:00:03.68 bitrate=1138.8kbits/s speed=0.0144x elapsed=0:04:15.68    \nframe=  223 fps=0.9 q=45.5 size=     512KiB time=00:00:03.68 bitrate=1138.8kbits/s speed=0.0144x elapsed=0:04:16.22    \nframe=  224 fps=0.9 q=46.0 size=     512KiB time=00:00:03.70 bitrate=1133.7kbits/s speed=0.0144x elapsed=0:04:16.75    \nframe=  225 fps=0.9 q=46.0 size=     512KiB time=00:00:03.71 bitrate=1128.6kbits/s speed=0.0144x elapsed=0:04:17.29    \nframe=  225 fps=0.9 q=46.0 size=     512KiB time=00:00:03.71 bitrate=1128.6kbits/s speed=0.0144x elapsed=0:04:17.83    \nframe=  226 fps=0.9 q=39.8 size=     512KiB time=00:00:03.73 bitrate=1123.6kbits/s speed=0.0145x elapsed=0:04:18.34    \nframe=  228 fps=0.9 q=46.0 size=     512KiB time=00:00:03.76 bitrate=1113.6kbits/s speed=0.0146x elapsed=0:04:18.85    \nframe=  229 fps=0.9 q=46.0 size=     512KiB time=00:00:03.78 bitrate=1108.7kbits/s speed=0.0146x elapsed=0:04:19.40    \nframe=  229 fps=0.9 q=46.0 size=     512KiB time=00:00:03.78 bitrate=1108.7kbits/s speed=0.0146x elapsed=0:04:19.94    \nframe=  230 fps=0.9 q=40.9 size=     512KiB time=00:00:03.80 bitrate=1103.9kbits/s speed=0.0146x elapsed=0:04:20.46    \nframe=  231 fps=0.9 q=46.9 size=     512KiB time=00:00:03.81 bitrate=1099.0kbits/s speed=0.0146x elapsed=0:04:20.98    \nframe=  231 fps=0.9 q=46.9 size=     512KiB time=00:00:03.81 bitrate=1099.0kbits/s speed=0.0146x elapsed=0:04:21.52    \nframe=  231 fps=0.9 q=46.9 size=     512KiB time=00:00:03.81 bitrate=1099.0kbits/s speed=0.0146x elapsed=0:04:22.07    \nframe=  232 fps=0.9 q=48.0 size=     512KiB time=00:00:03.83 bitrate=1094.3kbits/s speed=0.0146x elapsed=0:04:22.59    \nframe=  233 fps=0.9 q=48.0 size=     512KiB time=00:00:03.85 bitrate=1089.5kbits/s speed=0.0146x elapsed=0:04:23.12    \nframe=  233 fps=0.9 q=48.0 size=     512KiB time=00:00:03.85 bitrate=1089.5kbits/s speed=0.0146x elapsed=0:04:23.65    \nframe=  234 fps=0.9 q=40.9 size=     512KiB time=00:00:03.86 bitrate=1084.8kbits/s speed=0.0146x elapsed=0:04:24.19    \nframe=  234 fps=0.9 q=40.9 size=     512KiB time=00:00:03.86 bitrate=1084.8kbits/s speed=0.0146x elapsed=0:04:24.72    \nframe=  234 fps=0.9 q=40.9 size=     512KiB time=00:00:03.86 bitrate=1084.8kbits/s speed=0.0146x elapsed=0:04:25.24    \nframe=  235 fps=0.9 q=46.9 size=     512KiB time=00:00:03.88 bitrate=1080.2kbits/s speed=0.0146x elapsed=0:04:25.78    \nframe=  235 fps=0.9 q=46.9 size=     512KiB time=00:00:03.88 bitrate=1080.2kbits/s speed=0.0146x elapsed=0:04:26.33    \nframe=  235 fps=0.9 q=46.9 size=     512KiB time=00:00:03.88 bitrate=1080.2kbits/s speed=0.0146x elapsed=0:04:26.84    \nframe=  236 fps=0.9 q=48.0 size=     512KiB time=00:00:03.90 bitrate=1075.6kbits/s speed=0.0146x elapsed=0:04:27.36    \nframe=  237 fps=0.9 q=48.0 size=     512KiB time=00:00:03.91 bitrate=1071.0kbits/s speed=0.0146x elapsed=0:04:27.89    \nframe=  238 fps=0.9 q=40.3 size=     512KiB time=00:00:03.93 bitrate=1066.4kbits/s speed=0.0147x elapsed=0:04:28.45    \nframe=  239 fps=0.9 q=46.9 size=     512KiB time=00:00:03.95 bitrate=1061.9kbits/s speed=0.0147x elapsed=0:04:28.99    \nframe=  240 fps=0.9 q=48.0 size=     512KiB time=00:00:03.96 bitrate=1057.5kbits/s speed=0.0147x elapsed=0:04:29.52    \nframe=  240 fps=0.9 q=48.0 size=     512KiB time=00:00:03.96 bitrate=1057.5kbits/s speed=0.0147x elapsed=0:04:30.04    \nframe=  241 fps=0.9 q=48.0 size=     512KiB time=00:00:03.98 bitrate=1053.1kbits/s speed=0.0147x elapsed=0:04:30.58    \nframe=  241 fps=0.9 q=48.0 size=     512KiB time=00:00:03.98 bitrate=1053.1kbits/s speed=0.0147x elapsed=0:04:31.15    \nframe=  242 fps=0.9 q=40.3 size=     512KiB time=00:00:04.00 bitrate=1048.7kbits/s speed=0.0147x elapsed=0:04:31.69    \nframe=  244 fps=0.9 q=48.0 size=     512KiB time=00:00:04.01 bitrate=1044.3kbits/s speed=0.0148x elapsed=0:04:32.22    \nframe=  244 fps=0.9 q=48.0 size=     512KiB time=00:00:04.03 bitrate=1040.0kbits/s speed=0.0148x elapsed=0:04:32.75    \nframe=  244 fps=0.9 q=48.0 size=     512KiB time=00:00:04.03 bitrate=1040.0kbits/s speed=0.0148x elapsed=0:04:33.28    \nframe=  245 fps=0.9 q=48.0 size=     512KiB time=00:00:04.05 bitrate=1035.7kbits/s speed=0.0148x elapsed=0:04:33.80    \nframe=  245 fps=0.9 q=48.0 size=     512KiB time=00:00:04.05 bitrate=1035.7kbits/s speed=0.0148x elapsed=0:04:34.33    \nframe=  245 fps=0.9 q=48.0 size=     512KiB time=00:00:04.05 bitrate=1035.7kbits/s speed=0.0147x elapsed=0:04:34.87    \nframe=  246 fps=0.9 q=48.0 size=     512KiB time=00:00:04.06 bitrate=1031.5kbits/s speed=0.0148x elapsed=0:04:35.41    \nframe=  248 fps=0.9 q=45.7 size=     512KiB time=00:00:04.10 bitrate=1023.1kbits/s speed=0.0149x elapsed=0:04:35.94    \nframe=  248 fps=0.9 q=45.7 size=     512KiB time=00:00:04.10 bitrate=1023.1kbits/s speed=0.0148x elapsed=0:04:36.50    \nframe=  248 fps=0.9 q=45.7 size=     512KiB time=00:00:04.10 bitrate=1023.1kbits/s speed=0.0148x elapsed=0:04:37.03    \nframe=  248 fps=0.9 q=45.7 size=     512KiB time=00:00:04.10 bitrate=1023.1kbits/s speed=0.0148x elapsed=0:04:37.58    \nframe=  249 fps=0.9 q=47.0 size=     512KiB time=00:00:04.11 bitrate=1018.9kbits/s speed=0.0148x elapsed=0:04:38.11    \nframe=  249 fps=0.9 q=47.0 size=     512KiB time=00:00:04.11 bitrate=1018.9kbits/s speed=0.0148x elapsed=0:04:38.65    \nframe=  249 fps=0.9 q=47.0 size=     512KiB time=00:00:04.11 bitrate=1018.9kbits/s speed=0.0147x elapsed=0:04:39.16    \nframe=  249 fps=0.9 q=47.0 size=     512KiB time=00:00:04.11 bitrate=1018.9kbits/s speed=0.0147x elapsed=0:04:39.69    \nframe=  249 fps=0.9 q=47.0 size=     512KiB time=00:00:04.11 bitrate=1018.9kbits/s speed=0.0147x elapsed=0:04:40.22    \nframe=  249 fps=0.9 q=47.0 size=     512KiB time=00:00:04.11 bitrate=1018.9kbits/s speed=0.0147x elapsed=0:04:40.74    \nframe=  249 fps=0.9 q=47.0 size=     512KiB time=00:00:04.11 bitrate=1018.9kbits/s speed=0.0146x elapsed=0:04:41.27    \nframe=  249 fps=0.9 q=47.0 size=     512KiB time=00:00:04.11 bitrate=1018.9kbits/s speed=0.0146x elapsed=0:04:41.79    \nframe=  249 fps=0.9 q=47.0 size=     512KiB time=00:00:04.11 bitrate=1018.9kbits/s speed=0.0146x elapsed=0:04:42.32    \nframe=  250 fps=0.9 q=48.0 size=     512KiB time=00:00:04.13 bitrate=1014.8kbits/s speed=0.0146x elapsed=0:04:42.85    \nframe=  251 fps=0.9 q=41.6 size=     512KiB time=00:00:04.15 bitrate=1010.8kbits/s speed=0.0146x elapsed=0:04:43.36    \nframe=  252 fps=0.9 q=42.7 size=     768KiB time=00:00:04.16 bitrate=1510.0kbits/s speed=0.0147x elapsed=0:04:43.88    \nframe=  253 fps=0.9 q=47.7 size=     768KiB time=00:00:04.16 bitrate=1510.0kbits/s speed=0.0147x elapsed=0:04:44.39    \nframe=  253 fps=0.9 q=47.7 size=     768KiB time=00:00:04.18 bitrate=1504.0kbits/s speed=0.0147x elapsed=0:04:44.92    \nframe=  254 fps=0.9 q=49.0 size=     768KiB time=00:00:04.20 bitrate=1498.0kbits/s speed=0.0147x elapsed=0:04:45.45    \nframe=  254 fps=0.9 q=49.0 size=     768KiB time=00:00:04.20 bitrate=1498.0kbits/s speed=0.0147x elapsed=0:04:45.98    \nframe=  255 fps=0.9 q=50.0 size=     768KiB time=00:00:04.21 bitrate=1492.1kbits/s speed=0.0147x elapsed=0:04:46.49    \nframe=  255 fps=0.9 q=50.0 size=     768KiB time=00:00:04.21 bitrate=1492.1kbits/s speed=0.0147x elapsed=0:04:47.02    \nframe=  256 fps=0.9 q=41.3 size=     768KiB time=00:00:04.23 bitrate=1486.3kbits/s speed=0.0147x elapsed=0:04:47.54    \nframe=  257 fps=0.9 q=48.9 size=     768KiB time=00:00:04.25 bitrate=1480.4kbits/s speed=0.0148x elapsed=0:04:48.06    \nframe=  257 fps=0.9 q=48.9 size=     768KiB time=00:00:04.25 bitrate=1480.4kbits/s speed=0.0147x elapsed=0:04:48.58    \nframe=  258 fps=0.9 q=50.0 size=     768KiB time=00:00:04.26 bitrate=1474.6kbits/s speed=0.0148x elapsed=0:04:49.09    \nframe=  259 fps=0.9 q=50.0 size=     768KiB time=00:00:04.28 bitrate=1468.9kbits/s speed=0.0148x elapsed=0:04:49.62    \nframe=  260 fps=0.9 q=42.7 size=     768KiB time=00:00:04.30 bitrate=1463.2kbits/s speed=0.0148x elapsed=0:04:50.15    \nframe=  260 fps=0.9 q=42.7 size=     768KiB time=00:00:04.30 bitrate=1463.2kbits/s speed=0.0148x elapsed=0:04:50.68    \nframe=  260 fps=0.9 q=42.7 size=     768KiB time=00:00:04.30 bitrate=1463.2kbits/s speed=0.0148x elapsed=0:04:51.20    \nframe=  262 fps=0.9 q=50.0 size=     768KiB time=00:00:04.33 bitrate=1452.0kbits/s speed=0.0149x elapsed=0:04:51.72    \nframe=  263 fps=0.9 q=51.0 size=     768KiB time=00:00:04.35 bitrate=1446.4kbits/s speed=0.0149x elapsed=0:04:52.24    \nframe=  263 fps=0.9 q=51.0 size=     768KiB time=00:00:04.35 bitrate=1446.4kbits/s speed=0.0149x elapsed=0:04:52.75    \nframe=  263 fps=0.9 q=51.0 size=     768KiB time=00:00:04.35 bitrate=1446.4kbits/s speed=0.0148x elapsed=0:04:53.31    \nframe=  263 fps=0.9 q=51.0 size=     768KiB time=00:00:04.35 bitrate=1446.4kbits/s speed=0.0148x elapsed=0:04:53.87    \nframe=  263 fps=0.9 q=51.0 size=     768KiB time=00:00:04.35 bitrate=1446.4kbits/s speed=0.0148x elapsed=0:04:54.43    \nframe=  264 fps=0.9 q=51.0 size=     768KiB time=00:00:04.36 bitrate=1440.9kbits/s speed=0.0148x elapsed=0:04:54.98    \nframe=  265 fps=0.9 q=41.2 size=     768KiB time=00:00:04.38 bitrate=1435.4kbits/s speed=0.0148x elapsed=0:04:55.50    \nframe=  265 fps=0.9 q=41.2 size=     768KiB time=00:00:04.38 bitrate=1435.4kbits/s speed=0.0148x elapsed=0:04:56.03    \nframe=  268 fps=0.9 q=49.0 size=     768KiB time=00:00:04.43 bitrate=1419.2kbits/s speed=0.0149x elapsed=0:04:56.55    \nframe=  268 fps=0.9 q=49.0 size=     768KiB time=00:00:04.43 bitrate=1419.2kbits/s speed=0.0149x elapsed=0:04:57.08    \nframe=  269 fps=0.9 q=41.2 size=     768KiB time=00:00:04.45 bitrate=1413.9kbits/s speed=0.015x elapsed=0:04:57.61    \nframe=  271 fps=0.9 q=49.0 size=     768KiB time=00:00:04.48 bitrate=1403.4kbits/s speed=0.015x elapsed=0:04:58.13    \nframe=  273 fps=0.9 q=41.6 size=     768KiB time=00:00:04.51 bitrate=1393.0kbits/s speed=0.0151x elapsed=0:04:58.65    \nframe=  273 fps=0.9 q=41.6 size=     768KiB time=00:00:04.51 bitrate=1393.0kbits/s speed=0.0151x elapsed=0:04:59.15    \nframe=  274 fps=0.9 q=47.8 size=     768KiB time=00:00:04.53 bitrate=1387.9kbits/s speed=0.0151x elapsed=0:04:59.67    \nframe=  275 fps=0.9 q=49.0 size=     768KiB time=00:00:04.55 bitrate=1382.8kbits/s speed=0.0152x elapsed=0:05:00.23    \nframe=  276 fps=0.9 q=48.0 size=     768KiB time=00:00:04.56 bitrate=1377.8kbits/s speed=0.0152x elapsed=0:05:00.76    \nframe=  276 fps=0.9 q=48.0 size=     768KiB time=00:00:04.56 bitrate=1377.8kbits/s speed=0.0152x elapsed=0:05:01.29    \nframe=  277 fps=0.9 q=41.3 size=     768KiB time=00:00:04.58 bitrate=1372.8kbits/s speed=0.0152x elapsed=0:05:01.81    \nframe=  277 fps=0.9 q=41.3 size=     768KiB time=00:00:04.58 bitrate=1372.8kbits/s speed=0.0152x elapsed=0:05:02.34    \nframe=  278 fps=0.9 q=47.8 size=     768KiB time=00:00:04.60 bitrate=1367.8kbits/s speed=0.0152x elapsed=0:05:02.88    \nframe=  280 fps=0.9 q=47.0 size=     768KiB time=00:00:04.63 bitrate=1357.9kbits/s speed=0.0153x elapsed=0:05:03.41    \nframe=  280 fps=0.9 q=47.0 size=     768KiB time=00:00:04.63 bitrate=1357.9kbits/s speed=0.0152x elapsed=0:05:03.95    \nframe=  280 fps=0.9 q=47.0 size=     768KiB time=00:00:04.63 bitrate=1357.9kbits/s speed=0.0152x elapsed=0:05:04.48    \nframe=  282 fps=0.9 q=46.6 size=     768KiB time=00:00:04.66 bitrate=1348.2kbits/s speed=0.0153x elapsed=0:05:05.02    \nframe=  282 fps=0.9 q=46.6 size=     768KiB time=00:00:04.66 bitrate=1348.2kbits/s speed=0.0153x elapsed=0:05:05.55    \nframe=  282 fps=0.9 q=46.6 size=     768KiB time=00:00:04.66 bitrate=1348.2kbits/s speed=0.0152x elapsed=0:05:06.08    \nframe=  282 fps=0.9 q=46.6 size=     768KiB time=00:00:04.66 bitrate=1348.2kbits/s speed=0.0152x elapsed=0:05:06.66    \nframe=  283 fps=0.9 q=47.0 size=     768KiB time=00:00:04.68 bitrate=1343.4kbits/s speed=0.0152x elapsed=0:05:07.19    \nframe=  284 fps=0.9 q=48.0 size=     768KiB time=00:00:04.70 bitrate=1338.7kbits/s speed=0.0153x elapsed=0:05:07.74    \nframe=  285 fps=0.9 q=41.3 size=     768KiB time=00:00:04.71 bitrate=1334.0kbits/s speed=0.0153x elapsed=0:05:08.27    \nframe=  285 fps=0.9 q=41.3 size=     768KiB time=00:00:04.71 bitrate=1334.0kbits/s speed=0.0153x elapsed=0:05:08.80    \nframe=  285 fps=0.9 q=41.3 size=     768KiB time=00:00:04.71 bitrate=1334.0kbits/s speed=0.0152x elapsed=0:05:09.33    \nframe=  286 fps=0.9 q=46.8 size=     768KiB time=00:00:04.73 bitrate=1329.3kbits/s speed=0.0153x elapsed=0:05:09.85    \nframe=  286 fps=0.9 q=46.8 size=     768KiB time=00:00:04.73 bitrate=1329.3kbits/s speed=0.0152x elapsed=0:05:10.40    \nframe=  286 fps=0.9 q=46.8 size=     768KiB time=00:00:04.73 bitrate=1329.3kbits/s speed=0.0152x elapsed=0:05:10.93    \nframe=  287 fps=0.9 q=47.0 size=     768KiB time=00:00:04.75 bitrate=1324.6kbits/s speed=0.0152x elapsed=0:05:11.48    \nframe=  287 fps=0.9 q=47.0 size=     768KiB time=00:00:04.75 bitrate=1324.6kbits/s speed=0.0152x elapsed=0:05:12.01    \nframe=  287 fps=0.9 q=47.0 size=     768KiB time=00:00:04.75 bitrate=1324.6kbits/s speed=0.0152x elapsed=0:05:12.56    \nframe=  288 fps=0.9 q=46.0 size=     768KiB time=00:00:04.76 bitrate=1320.0kbits/s speed=0.0152x elapsed=0:05:13.19    \nframe=  289 fps=0.9 q=41.6 size=     768KiB time=00:00:04.78 bitrate=1315.4kbits/s speed=0.0152x elapsed=0:05:13.87    \nframe=  289 fps=0.9 q=41.6 size=     768KiB time=00:00:04.78 bitrate=1315.4kbits/s speed=0.0152x elapsed=0:05:14.56    \nframe=  289 fps=0.9 q=41.6 size=     768KiB time=00:00:04.78 bitrate=1315.4kbits/s speed=0.0152x elapsed=0:05:15.16    \nframe=  289 fps=0.9 q=41.6 size=     768KiB time=00:00:04.78 bitrate=1315.4kbits/s speed=0.0151x elapsed=0:05:15.79    \nframe=  289 fps=0.9 q=41.6 size=     768KiB time=00:00:04.78 bitrate=1315.4kbits/s speed=0.0151x elapsed=0:05:16.47    \nframe=  289 fps=0.9 q=41.6 size=     768KiB time=00:00:04.78 bitrate=1315.4kbits/s speed=0.0151x elapsed=0:05:17.13    \nframe=  289 fps=0.9 q=41.6 size=     768KiB time=00:00:04.78 bitrate=1315.4kbits/s speed=0.0151x elapsed=0:05:17.71    \nframe=  289 fps=0.9 q=41.6 size=     768KiB time=00:00:04.78 bitrate=1315.4kbits/s speed=0.015x elapsed=0:05:18.36    \nframe=  289 fps=0.9 q=41.6 size=     768KiB time=00:00:04.78 bitrate=1315.4kbits/s speed=0.015x elapsed=0:05:18.96    \nframe=  289 fps=0.9 q=41.6 size=     768KiB time=00:00:04.78 bitrate=1315.4kbits/s speed=0.015x elapsed=0:05:19.59    \nframe=  289 fps=0.9 q=41.6 size=     768KiB time=00:00:04.78 bitrate=1315.4kbits/s speed=0.0149x elapsed=0:05:20.22    \nframe=  290 fps=0.9 q=45.3 size=     768KiB time=00:00:04.80 bitrate=1310.8kbits/s speed=0.015x elapsed=0:05:20.78    \nframe=  290 fps=0.9 q=45.3 size=     768KiB time=00:00:04.80 bitrate=1310.8kbits/s speed=0.0149x elapsed=0:05:21.29    \nframe=  290 fps=0.9 q=45.3 size=     768KiB time=00:00:04.80 bitrate=1310.8kbits/s speed=0.0149x elapsed=0:05:21.84    \nframe=  290 fps=0.9 q=45.3 size=     768KiB time=00:00:04.80 bitrate=1310.8kbits/s speed=0.0149x elapsed=0:05:22.39    \nframe=  290 fps=0.9 q=45.3 size=     768KiB time=00:00:04.80 bitrate=1310.8kbits/s speed=0.0149x elapsed=0:05:22.92    \nframe=  290 fps=0.9 q=45.3 size=     768KiB time=00:00:04.80 bitrate=1310.8kbits/s speed=0.0148x elapsed=0:05:23.44    \nframe=  291 fps=0.9 q=45.0 size=     768KiB time=00:00:04.81 bitrate=1306.3kbits/s speed=0.0149x elapsed=0:05:23.97    \nframe=  292 fps=0.9 q=46.0 size=     768KiB time=00:00:04.83 bitrate=1301.8kbits/s speed=0.0149x elapsed=0:05:24.49    \nframe=  293 fps=0.9 q=42.0 size=     768KiB time=00:00:04.85 bitrate=1297.3kbits/s speed=0.0149x elapsed=0:05:25.02    \nframe=  294 fps=0.9 q=44.7 size=     768KiB time=00:00:04.86 bitrate=1292.8kbits/s speed=0.0149x elapsed=0:05:25.54    \nframe=  294 fps=0.9 q=44.7 size=     768KiB time=00:00:04.86 bitrate=1292.8kbits/s speed=0.0149x elapsed=0:05:26.06    \nframe=  294 fps=0.9 q=44.7 size=     768KiB time=00:00:04.86 bitrate=1292.8kbits/s speed=0.0149x elapsed=0:05:26.58    \nframe=  294 fps=0.9 q=44.7 size=     768KiB time=00:00:04.86 bitrate=1292.8kbits/s speed=0.0149x elapsed=0:05:27.10    \nframe=  295 fps=0.9 q=45.0 size=     768KiB time=00:00:04.88 bitrate=1288.4kbits/s speed=0.0149x elapsed=0:05:27.62    \nframe=  295 fps=0.9 q=45.0 size=     768KiB time=00:00:04.88 bitrate=1288.4kbits/s speed=0.0149x elapsed=0:05:28.14    \nframe=  297 fps=0.9 q=41.3 size=     768KiB time=00:00:04.91 bitrate=1279.7kbits/s speed=0.015x elapsed=0:05:28.66    \nframe=  297 fps=0.9 q=41.3 size=     768KiB time=00:00:04.91 bitrate=1279.7kbits/s speed=0.0149x elapsed=0:05:29.17    \nframe=  299 fps=0.9 q=43.9 size=     768KiB time=00:00:04.95 bitrate=1271.1kbits/s speed=0.015x elapsed=0:05:29.71    \n[mp4 @ 000001f68c91f140] Starting second pass: moving the moov atom to the beginning of the file\n[out#0/mp4 @ 000001f68c91f040] video:896KiB audio:0KiB subtitle:0KiB other streams:0KiB global headers:2KiB muxing overhead: 0.788898%\nframe=  300 fps=0.9 q=40.3 Lsize=     904KiB time=00:00:04.96 bitrate=1490.3kbits/s speed=0.0151x elapsed=0:05:29.76    \nx265 [info]: frame I:      2, Avg QP:44.03  kb/s: 22577.04\nx265 [info]: frame P:     77, Avg QP:41.53  kb/s: 4577.40 \nx265 [info]: frame B:    221, Avg QP:47.15  kb/s: 192.06  \nx265 [info]: Weighted P-Frames: Y:0.0% UV:0.0%\n\nencoded 300 frames in 329.21s (0.91 fps), 1466.86 kb/s, Avg QP:45.69\n",
  "seconds": 330.27915024757385,
  "probe_out": {}
}